<svg width="150" height="150" viewBox="0 0 150 150" fill="none" xmlns="http://www.w3.org/2000/svg">
<line x1="83.3877" y1="83.0481" x2="137.294" y2="136.713" stroke="black" stroke-width="36"/>
<rect x="0.0585938" y="63.7363" width="89.5127" height="74.5569" transform="rotate(-45 0.0585938 63.7363)" fill="black"/>
<line x1="35.5119" y1="99.4917" x2="98.9774" y2="36.0263" stroke="white" stroke-width="7"/>
<line x1="35.5119" y1="99.4917" x2="98.9774" y2="36.0263" stroke="white" stroke-width="7"/>
<line x1="35.5119" y1="99.4917" x2="98.9774" y2="36.0263" stroke="white" stroke-width="7"/>
<path d="M33.668 30.125C33.7148 30.1719 35.1541 31.6655 35.3838 31.9509C35.9081 32.6023 36.4924 33.1708 37.0585 33.7822C38.2636 35.0837 39.1686 36.6577 40.3126 38.0097C42.7183 40.8529 44.148 44.9319 43.6823 48.6569C43.4359 50.6285 42.9503 52.7237 41.783 54.3685C40.8646 55.6626 39.5376 57.205 37.9707 57.6838C36.0098 58.283 34.112 58.6848 32.2319 59.5695C30.6077 60.3338 29.2795 61.9727 28.6103 63.62C27.9425 65.2638 28.003 66.7724 28.3992 68.4943C28.6182 69.446 28.9443 70.4292 29.0391 71.4012C29.1567 72.6057 29.7816 73.7121 30.1147 74.8662C31.0948 78.2613 32.9198 81.7285 32.8378 85.3364C32.8174 86.2321 32.3649 87.2566 31.8575 87.9777C31.6348 88.2942 31.2948 88.4133 31.1223 88.8015C31.0219 89.0273 30.2336 89.4841 30.0206 89.6094C29.4657 90.0561 28.0224 90.9739 27.6562 91.3398" stroke="white" stroke-width="3"/>
<path d="M47.0972 16.6967C47.2327 16.8323 49.7097 19.4684 49.8827 19.7329C50.69 20.9667 51.2472 22.1949 51.808 23.5534C52.1254 24.3221 52.4039 25.1067 52.7105 25.8797C53.056 26.751 53.5869 27.5245 54.0391 28.3415C55.0813 30.2241 56.5952 31.6238 58.2757 32.9341C60.0867 34.346 62.4127 35.1628 64.6833 34.4532C66.6656 33.8338 68.6259 32.1208 69.2257 30.0812C69.9639 27.5716 69.3796 24.6696 68.0776 22.4503C66.9741 20.5693 65.311 18.7802 63.7357 17.2812C62.4879 16.0937 61.1614 14.9758 60.0857 13.6211C59.2304 12.5441 58.3259 11.0889 58.3259 9.65525C58.3259 9.43263 58.2684 9.06737 58.2156 8.84303C58.1066 8.38005 58.2156 8.06808 58.2156 7.66984C58.2156 7.2716 57.4894 6.62593 57.3244 6.46177" stroke="white" stroke-width="3"/>
</svg>
