<svg width="185" height="164" viewBox="0 0 185 164" fill="none" xmlns="http://www.w3.org/2000/svg">
<path d="M160.755 39.1458L118.314 12.2742C115.047 10.2061 110.395 10.9389 107.923 13.9109L21.6404 117.625C19.168 120.597 19.8115 124.682 23.0778 126.75L65.5195 153.622C68.7858 155.69 73.4381 154.957 75.9106 151.985L162.193 48.2716C164.665 45.2996 164.022 41.2138 160.755 39.1458Z" stroke="black" stroke-width="8"/>
<line x1="5" y1="-5" x2="15.163" y2="-5" transform="matrix(-0.999894 -0.0145688 -0.113577 0.993529 160.95 50.8284)" stroke="black" stroke-width="10" stroke-linecap="round"/>
<path d="M109.95 112.514L135.368 81.3077L165.451 45.0452L138.764 23.2779L120.952 13.6544L104.212 13.5465L92.1921 15.5006L84.9856 24.3278L71.0455 42.1947L53.7478 62.0934L40.6156 75.0787L59.7178 74.19C81.2579 89.1139 89.0279 95.4316 109.95 112.514Z" fill="black"/>
<path d="M114.007 10.9001L94.3465 14.2105" stroke="black" stroke-width="7" stroke-linecap="round"/>
<path d="M101.57 16.5899L111.458 14.2104L60.8162 74.7533L52.2658 74.5594L101.57 16.5899Z" fill="white"/>
<path d="M93.0054 14.9443L7.05695 116.583" stroke="black" stroke-width="8" stroke-linecap="round"/>
<path d="M50.832 158.633L180.27 154.964" stroke="black" stroke-width="9" stroke-linecap="round"/>
<path d="M7.21211 116.456C-0.836918 129.165 11.8918 135.578 16.5747 138.461" stroke="black" stroke-width="8"/>
<path d="M16.5752 138.461L50.215 158.703" stroke="black" stroke-width="8"/>
</svg>
