<svg width="1194" height="769" viewBox="0 0 1194 769" fill="none" xmlns="http://www.w3.org/2000/svg">
<g opacity="0.6">
<circle cx="922.925" cy="653.767" r="115" fill="url(#paint0_linear_115_1226)"/>
<path d="M222.694 329.193C482.426 202.247 493.357 268.853 466.355 318.025C361.374 481.987 234.951 761.71 510.524 502.759C786.097 243.808 783.68 279.152 748.025 329.193C583.315 515.54 684.571 583.02 763.111 601.734" stroke="url(#paint1_linear_115_1226)" stroke-width="25"/>
<path d="M479.173 173.537C457.427 153.38 431.848 137.785 403.897 127.642C375.947 117.499 346.171 113.006 316.272 114.421C286.372 115.836 256.933 123.13 229.636 135.888C202.339 148.645 177.718 166.616 157.18 188.773C136.642 210.931 120.588 236.842 109.935 265.027C99.2818 293.212 94.2384 323.119 95.0926 353.04C95.9469 382.961 102.682 412.311 114.913 439.413C127.145 466.515 144.633 490.839 166.379 510.996L246.981 424.039C236.442 414.27 227.967 402.482 222.039 389.347C216.111 376.212 212.847 361.989 212.433 347.488C212.019 332.987 214.463 318.493 219.626 304.834C224.789 291.174 232.569 278.617 242.523 267.879C252.476 257.14 264.408 248.431 277.637 242.248C290.866 236.066 305.133 232.53 319.624 231.845C334.114 231.159 348.545 233.336 362.09 238.252C375.636 243.168 388.033 250.726 398.572 260.495L479.173 173.537Z" fill="url(#paint2_linear_115_1226)"/>
<g style="mix-blend-mode:overlay">
<path d="M509.364 188.773C487.618 168.616 462.039 153.021 434.088 142.878C406.137 132.735 376.362 128.242 346.462 129.657C316.562 131.072 287.123 138.366 259.826 151.124C232.529 163.881 207.909 181.852 187.371 204.01C166.832 226.167 150.778 252.078 140.125 280.263C129.472 308.448 124.429 338.355 125.283 368.276C126.137 398.197 132.872 427.547 145.104 454.649C157.335 481.751 174.823 506.075 196.57 526.232L277.171 439.275C266.632 429.506 258.157 417.718 252.229 404.583C246.302 391.448 243.037 377.225 242.624 362.724C242.21 348.223 244.654 333.729 249.816 320.07C254.979 306.41 262.76 293.853 272.713 283.115C282.667 272.376 294.599 263.667 307.828 257.484C321.057 251.302 335.324 247.767 349.814 247.081C364.305 246.395 378.735 248.572 392.281 253.488C405.827 258.404 418.223 265.962 428.762 275.731L509.364 188.773Z" fill="#FCFF81"/>
</g>
<g style="mix-blend-mode:overlay">
<path d="M259.194 343.839C518.926 216.893 529.857 283.499 502.855 332.671C397.874 496.633 256.805 759.82 532.378 500.869C807.951 241.918 805.534 277.262 769.879 327.303C605.169 513.65 721.071 597.666 799.611 616.38" stroke="white" stroke-width="25"/>
</g>
<g style="mix-blend-mode:overlay">
<circle cx="942.453" cy="653.767" r="115" fill="#FF9999"/>
</g>
<line x1="677.605" y1="192.067" x2="1043.35" y2="29.2116" stroke="white" stroke-width="4.00367"/>
<line x1="703.661" y1="250.587" x2="1069.41" y2="87.7314" stroke="white" stroke-width="4.00367"/>
<line x1="690.633" y1="221.327" x2="1056.38" y2="58.4714" stroke="white" stroke-width="4.00367"/>
<line x1="717.133" y1="280.843" x2="1082.88" y2="117.987" stroke="white" stroke-width="4.00367"/>
<line x1="743.19" y1="339.362" x2="1108.94" y2="176.507" stroke="white" stroke-width="4.00367"/>
<line x1="730.162" y1="310.102" x2="1095.91" y2="147.247" stroke="white" stroke-width="4.00367"/>
<line x1="755.758" y1="367.588" x2="1121.51" y2="204.732" stroke="white" stroke-width="4.00367"/>
<line x1="781.815" y1="426.107" x2="1147.56" y2="263.252" stroke="white" stroke-width="4.00367"/>
<line x1="768.786" y1="396.847" x2="1134.53" y2="233.992" stroke="white" stroke-width="4.00367"/>
<line x1="795.287" y1="456.363" x2="1161.03" y2="293.507" stroke="white" stroke-width="4.00367"/>
<line x1="821.344" y1="514.883" x2="1187.09" y2="352.027" stroke="white" stroke-width="4.00367"/>
<line x1="808.315" y1="485.623" x2="1174.06" y2="322.767" stroke="white" stroke-width="4.00367"/>
<line x1="845.963" y1="520.362" x2="683.107" y2="154.614" stroke="white" stroke-width="4.00367"/>
<line x1="904.482" y1="494.305" x2="741.627" y2="128.557" stroke="white" stroke-width="4.00367"/>
<line x1="875.223" y1="507.334" x2="712.367" y2="141.586" stroke="white" stroke-width="4.00367"/>
<line x1="934.738" y1="480.833" x2="771.882" y2="115.085" stroke="white" stroke-width="4.00367"/>
<line x1="993.258" y1="454.776" x2="830.402" y2="89.0284" stroke="white" stroke-width="4.00367"/>
<line x1="963.998" y1="467.805" x2="801.142" y2="102.057" stroke="white" stroke-width="4.00367"/>
<line x1="1023.53" y1="441.297" x2="860.676" y2="75.5486" stroke="white" stroke-width="4.00367"/>
<line x1="1082.05" y1="415.24" x2="919.195" y2="49.4918" stroke="white" stroke-width="4.00367"/>
<line x1="1052.79" y1="428.268" x2="889.936" y2="62.5201" stroke="white" stroke-width="4.00367"/>
<line x1="1112.31" y1="401.768" x2="949.451" y2="36.0198" stroke="white" stroke-width="4.00367"/>
<line x1="1170.83" y1="375.711" x2="1007.97" y2="9.96295" stroke="white" stroke-width="4.00367"/>
<line x1="1141.57" y1="388.739" x2="978.711" y2="22.9913" stroke="white" stroke-width="4.00367"/>
</g>
<defs>
<linearGradient id="paint0_linear_115_1226" x1="851.863" y1="561.957" x2="922.925" y2="757.237" gradientUnits="userSpaceOnUse">
<stop stop-color="#FF63D3"/>
<stop offset="1" stop-color="#81FFC2"/>
</linearGradient>
<linearGradient id="paint1_linear_115_1226" x1="471.563" y1="238.075" x2="594.287" y2="651.811" gradientUnits="userSpaceOnUse">
<stop stop-color="#FF8FED"/>
<stop offset="1" stop-color="#8FFFD7"/>
</linearGradient>
<linearGradient id="paint2_linear_115_1226" x1="118.343" y1="511.916" x2="533.313" y2="137.222" gradientUnits="userSpaceOnUse">
<stop stop-color="#FF1ABF"/>
<stop offset="1" stop-color="#1AFFAC"/>
</linearGradient>
</defs>
</svg>
