<svg width="49" height="48" viewBox="0 0 49 48" fill="none" xmlns="http://www.w3.org/2000/svg">
<rect x="0.419922" y="0.399902" width="47.6" height="47.6" fill="black"/>
<path d="M18.254 14.8549C19.0196 14.8407 19.784 14.9192 20.5308 15.0887C21.1595 15.2259 21.7564 15.4813 22.2897 15.8413C22.7824 16.1993 23.1721 16.6806 23.4199 17.2369C23.7047 17.9209 23.8421 18.6572 23.8232 19.3979C23.8555 20.2112 23.6478 21.016 23.2259 21.7121C22.7821 22.3695 22.1686 22.8945 21.4506 23.2315C22.425 23.4942 23.2738 24.0959 23.8442 24.9285C24.3918 25.8107 24.667 26.8348 24.6355 27.8727C24.6535 28.7001 24.4824 29.5208 24.1352 30.2721C23.8143 30.9276 23.3444 31.4987 22.7631 31.94C22.1646 32.3764 21.4912 32.6992 20.7762 32.8925C20.0347 33.0976 19.2687 33.2007 18.4994 33.1987H10.0527V14.8549H18.254ZM17.7666 22.2743C18.3681 22.299 18.9603 22.119 19.4461 21.7635C19.6788 21.5563 19.8598 21.2976 19.9747 21.008C20.0896 20.7184 20.1351 20.406 20.1077 20.0957C20.1232 19.7332 20.0511 19.3724 19.8973 19.0438C19.7668 18.7822 19.564 18.5635 19.3129 18.4138C19.0586 18.249 18.7728 18.1388 18.4737 18.0901C18.1492 18.0272 17.819 17.9986 17.4884 18.0047H13.8793V22.2906H17.7666V22.2743ZM17.977 30.084C18.3408 30.0889 18.7038 30.0496 19.0581 29.9671C19.3819 29.8956 19.689 29.7627 19.9627 29.5756C20.2309 29.3885 20.4476 29.1369 20.5927 28.8439C20.7609 28.4703 20.8383 28.0622 20.8183 27.6529C20.8547 27.28 20.8054 26.9037 20.6739 26.5528C20.5424 26.2019 20.3323 25.8858 20.0597 25.6286C19.482 25.2031 18.774 24.9923 18.0576 25.0325H13.8793V30.084H17.977Z" fill="white"/>
<path d="M30.0854 30.0161C30.3857 30.2945 30.7395 30.5089 31.1253 30.6464C31.5111 30.7838 31.9207 30.8414 32.3294 30.8156C32.9774 30.8319 33.6127 30.6348 34.1375 30.2546C34.5645 29.9769 34.8879 29.5661 35.0573 29.0858H38.109C37.7839 30.4531 36.9898 31.6631 35.865 32.5056C34.7859 33.2219 33.5106 33.5846 32.2161 33.5435C31.2921 33.5556 30.3752 33.3819 29.5197 33.0327C28.7459 32.71 28.0518 32.2222 27.4861 31.6033C26.9225 30.9549 26.4895 30.2036 26.2109 29.3908C25.8983 28.4824 25.7453 27.5266 25.7586 26.5659C25.7529 25.6214 25.9111 24.683 26.2261 23.7924C26.6494 22.5397 27.4586 21.4531 28.5376 20.6888C29.6167 19.9245 30.9102 19.5217 32.2324 19.5381C33.2086 19.5177 34.174 19.7462 35.0375 20.202C35.818 20.63 36.4914 21.2294 37.0069 21.9551C37.5342 22.7167 37.9121 23.5713 38.1207 24.4738C38.3494 25.4429 38.431 26.4409 38.3626 27.4343H29.2731C29.1995 28.3676 29.4906 29.2931 30.0854 30.0161V30.0161ZM34.0732 23.0398C33.8189 22.7853 33.513 22.5884 33.1761 22.4622C32.8392 22.336 32.4791 22.2834 32.1202 22.3081C31.6441 22.2899 31.1714 22.3954 30.7481 22.6143C30.4126 22.799 30.1164 23.0476 29.8762 23.346C29.6634 23.6257 29.5048 23.9429 29.4087 24.281C29.3221 24.563 29.268 24.8539 29.2474 25.1482H34.8774C34.8283 24.3811 34.5489 23.6466 34.0756 23.0409L34.0732 23.0398Z" fill="white"/>
<path d="M35.5762 16.0797H28.5215V17.8831H35.5762V16.0797Z" fill="white"/>
</svg>
