<svg width="1708" height="312" viewBox="0 0 1708 312" fill="none" xmlns="http://www.w3.org/2000/svg">
<g clip-path="url(#clip0_107_14)">
<rect width="1707" height="311" transform="translate(0.142334 0.86499)" fill="#003466"/>
<g filter="url(#filter0_d_107_14)">
<rect x="431.396" y="213.459" width="5.77518" height="11.0253" fill="#D9D9D9"/>
<rect x="431.396" y="242.393" width="5.77518" height="11.0253" fill="#D9D9D9"/>
<rect width="5.77518" height="11.9004" transform="matrix(0 -1 -1 0 426.262 236.326)" fill="#D9D9D9"/>
<rect width="5.77518" height="11.9004" transform="matrix(0 -1 -1 0 454.846 236.326)" fill="#D9D9D9"/>
<rect width="5.77518" height="5.9502" transform="matrix(0 -1 -1 0 437.171 236.326)" fill="#D9D9D9"/>
<rect x="1257.71" y="264.446" width="5.77518" height="11.0253" fill="#D9D9D9"/>
<rect x="1257.71" y="293.38" width="5.77518" height="11.0253" fill="#D9D9D9"/>
<rect width="5.77518" height="11.9004" transform="matrix(0 -1 -1 0 1252.58 287.313)" fill="#D9D9D9"/>
<rect width="5.77518" height="11.9004" transform="matrix(0 -1 -1 0 1281.17 287.313)" fill="#D9D9D9"/>
<rect width="5.77518" height="5.9502" transform="matrix(0 -1 -1 0 1263.49 287.313)" fill="#D9D9D9"/>
<rect x="109.714" y="5.56787" width="5.77518" height="11.0253" fill="#D9D9D9"/>
<rect x="1102.33" y="-6.31958" width="5.77518" height="11.0253" fill="#D9D9D9"/>
</g>
<g filter="url(#filter1_d_107_14)">
<rect x="775.667" y="247.01" width="5.9" height="5.90454" transform="rotate(-90 775.667 247.01)" fill="#D9D9D9"/>
<rect x="792.684" y="229.992" width="5.9" height="5.90454" transform="rotate(-90 792.684 229.992)" fill="#D9D9D9"/>
<rect x="809.624" y="247.01" width="5.9" height="5.90454" transform="rotate(-90 809.624 247.01)" fill="#D9D9D9"/>
<rect x="792.684" y="263.949" width="5.9" height="5.90454" transform="rotate(-90 792.684 263.949)" fill="#D9D9D9"/>
<rect x="1459.14" y="17.2769" width="5.9" height="5.90454" transform="rotate(-90 1459.14 17.2769)" fill="#D9D9D9"/>
<rect x="1493.1" y="17.2769" width="5.9" height="5.90454" transform="rotate(-90 1493.1 17.2769)" fill="#D9D9D9"/>
<rect x="1476.16" y="34.2163" width="5.9" height="5.90454" transform="rotate(-90 1476.16 34.2163)" fill="#D9D9D9"/>
</g>
<g filter="url(#filter2_d_107_14)">
<rect x="797.164" y="32.8262" width="5.9" height="5.90454" transform="rotate(-90 797.164 32.8262)" fill="#D9D9D9"/>
<rect x="814.228" y="49.8057" width="5.9" height="5.90454" transform="rotate(-90 814.228 49.8057)" fill="#D9D9D9"/>
<rect x="780.192" y="49.8057" width="5.9" height="5.90454" transform="rotate(-90 780.192 49.8057)" fill="#D9D9D9"/>
<rect x="797.164" y="66.7659" width="5.9" height="5.90454" transform="rotate(-90 797.164 66.7659)" fill="#D9D9D9"/>
<rect x="809.179" y="60.8657" width="5.00181" height="5.0481" transform="rotate(-90 809.179 60.8657)" fill="#D9D9D9"/>
<rect x="786.097" y="60.8657" width="5.00181" height="5.0481" transform="rotate(-90 786.097 60.8657)" fill="#D9D9D9"/>
<rect x="786.097" y="37.8281" width="5.00181" height="5.0481" transform="rotate(-90 786.097 37.8281)" fill="#D9D9D9"/>
<rect x="809.179" y="37.8281" width="5.00181" height="5.0481" transform="rotate(-90 809.179 37.8281)" fill="#D9D9D9"/>
<rect x="1660.55" y="24.4253" width="5.9" height="5.90454" transform="rotate(-90 1660.55 24.4253)" fill="#D9D9D9"/>
<rect x="1677.61" y="41.4048" width="5.9" height="5.90454" transform="rotate(-90 1677.61 41.4048)" fill="#D9D9D9"/>
<rect x="1643.58" y="41.4048" width="5.9" height="5.90454" transform="rotate(-90 1643.58 41.4048)" fill="#D9D9D9"/>
<rect x="1660.55" y="58.365" width="5.9" height="5.90454" transform="rotate(-90 1660.55 58.365)" fill="#D9D9D9"/>
<rect x="1672.56" y="52.4648" width="5.00181" height="5.0481" transform="rotate(-90 1672.56 52.4648)" fill="#D9D9D9"/>
<rect x="1649.48" y="52.4648" width="5.00181" height="5.0481" transform="rotate(-90 1649.48 52.4648)" fill="#D9D9D9"/>
<rect x="1649.48" y="29.4272" width="5.00181" height="5.0481" transform="rotate(-90 1649.48 29.4272)" fill="#D9D9D9"/>
<rect x="1672.56" y="29.4272" width="5.00181" height="5.0481" transform="rotate(-90 1672.56 29.4272)" fill="#D9D9D9"/>
<rect x="127.488" y="203.399" width="5.9" height="5.90454" transform="rotate(-90 127.488 203.399)" fill="#D9D9D9"/>
<rect x="144.552" y="220.379" width="5.9" height="5.90454" transform="rotate(-90 144.552 220.379)" fill="#D9D9D9"/>
<rect x="110.517" y="220.379" width="5.9" height="5.90454" transform="rotate(-90 110.517 220.379)" fill="#D9D9D9"/>
<rect x="127.488" y="237.339" width="5.9" height="5.90454" transform="rotate(-90 127.488 237.339)" fill="#D9D9D9"/>
<rect x="139.504" y="231.439" width="5.00181" height="5.0481" transform="rotate(-90 139.504 231.439)" fill="#D9D9D9"/>
<rect x="116.421" y="231.439" width="5.00181" height="5.0481" transform="rotate(-90 116.421 231.439)" fill="#D9D9D9"/>
<rect x="116.421" y="208.401" width="5.00181" height="5.0481" transform="rotate(-90 116.421 208.401)" fill="#D9D9D9"/>
<rect x="139.504" y="208.401" width="5.00181" height="5.0481" transform="rotate(-90 139.504 208.401)" fill="#D9D9D9"/>
</g>
<g filter="url(#filter3_d_107_14)">
<rect x="626.66" y="205.581" width="4.89529" height="6.23956" fill="#D9D9D9"/>
<rect x="626.66" y="216.822" width="4.89529" height="6.23956" fill="#D9D9D9"/>
<rect x="620.421" y="216.715" width="4.89529" height="6.23956" transform="rotate(-90 620.421 216.715)" fill="#D9D9D9"/>
<rect x="631.556" y="216.822" width="4.89529" height="6.23956" transform="rotate(-90 631.556 216.822)" fill="#D9D9D9"/>
<rect x="317.382" y="119.518" width="4.89529" height="6.23956" fill="#D9D9D9"/>
<rect x="317.382" y="130.759" width="4.89529" height="6.23956" fill="#D9D9D9"/>
<rect x="311.142" y="130.653" width="4.89529" height="6.23956" transform="rotate(-90 311.142 130.653)" fill="#D9D9D9"/>
<rect x="322.277" y="130.759" width="4.89529" height="6.23956" transform="rotate(-90 322.277 130.759)" fill="#D9D9D9"/>
<rect x="1068.64" y="151.359" width="4.89529" height="6.23956" fill="#D9D9D9"/>
<rect x="1068.64" y="162.6" width="4.89529" height="6.23956" fill="#D9D9D9"/>
<rect x="1062.4" y="162.494" width="4.89529" height="6.23956" transform="rotate(-90 1062.4 162.494)" fill="#D9D9D9"/>
<rect x="1073.53" y="162.6" width="4.89529" height="6.23956" transform="rotate(-90 1073.53 162.6)" fill="#D9D9D9"/>
<rect x="1321.38" y="133.879" width="4.89529" height="6.23956" fill="#D9D9D9"/>
<rect x="1321.38" y="145.12" width="4.89529" height="6.23956" fill="#D9D9D9"/>
<rect x="1315.14" y="145.013" width="4.89529" height="6.23956" transform="rotate(-90 1315.14 145.013)" fill="#D9D9D9"/>
<rect x="1326.28" y="145.12" width="4.89529" height="6.23956" transform="rotate(-90 1326.28 145.12)" fill="#D9D9D9"/>
</g>
<path d="M614.018 185.769L591.362 154.761L582.626 154.665V185.865H577.442V118.665H582.626V149.577H591.362L614.018 118.665H620.834V123.753H616.706L595.874 152.169L616.706 180.681H620.834V185.769H614.018ZM629.474 132.969V127.113H634.37V132.969H629.474ZM629.474 185.865V139.977H634.274V185.865H629.474ZM660.325 144.969V185.865H655.141V144.969H643.045V139.977H655.141V118.761H660.325V139.977H672.805V144.969H660.325ZM697.731 144.969V185.865H692.547V144.969H680.451V139.977H692.547V118.761H697.731V139.977H710.211V144.969H697.731ZM729.281 202.377L725.345 199.017L736.481 185.673L717.857 164.649V139.977H723.041V162.729L738.305 180.105H741.089L755.297 163.113V139.977H760.385V164.841L729.281 202.377ZM860.881 132.681L854.161 123.753H819.121L812.497 132.681V171.849L819.121 180.681H854.065L860.785 171.753L864.913 174.921L856.561 185.865H816.529L807.313 173.673V130.857L816.529 118.665H856.657L865.009 129.609L860.881 132.681ZM913.34 185.769V181.833L907.964 185.865H881.948L872.732 178.185V147.561L881.948 140.073H908.06L913.34 145.449V140.073H918.332V185.769H913.34ZM913.34 152.649L906.332 145.065H883.772L877.916 149.961V175.881L883.772 180.681H906.62L913.34 175.497V152.649ZM944.294 144.969V185.865H939.11V144.969H927.014V139.977H939.11V118.761H944.294V139.977H956.774V144.969H944.294ZM1050.86 185.865V162.153H1007.85V185.865H1002.86V153.033L1024.65 118.665H1032.62L1055.95 153.129V185.865H1050.86ZM1050.76 154.569L1029.83 123.849H1027.53L1007.95 154.473V157.065L1050.76 157.161V154.569ZM1104.98 155.049H1069.66V185.865H1064.57V118.665H1111.22L1115.93 129.897V139.305L1104.98 155.049ZM1110.84 130.857L1107.86 123.753H1069.66V149.865H1102.2L1110.84 137.673V130.857ZM1124.57 185.865V118.665H1129.66V185.865H1124.57Z" fill="white"/>
</g>
<defs>
<filter id="filter0_d_107_14" x="-54.62" y="-251.174" width="1765.76" height="1135.58" filterUnits="userSpaceOnUse" color-interpolation-filters="sRGB">
<feFlood flood-opacity="0" result="BackgroundImageFix"/>
<feColorMatrix in="SourceAlpha" type="matrix" values="0 0 0 0 0 0 0 0 0 0 0 0 0 0 0 0 0 0 127 0" result="hardAlpha"/>
<feOffset dy="5.5"/>
<feGaussianBlur stdDeviation="2"/>
<feComposite in2="hardAlpha" operator="out"/>
<feColorMatrix type="matrix" values="0 0 0 0 0 0 0 0 0 0 0 0 0 0 0 0 0 0 0.35 0"/>
<feBlend mode="normal" in2="BackgroundImageFix" result="effect1_dropShadow_107_14"/>
<feBlend mode="normal" in="SourceGraphic" in2="effect1_dropShadow_107_14" result="shape"/>
</filter>
<filter id="filter1_d_107_14" x="121.142" y="-116.641" width="1514.86" height="869.314" filterUnits="userSpaceOnUse" color-interpolation-filters="sRGB">
<feFlood flood-opacity="0" result="BackgroundImageFix"/>
<feColorMatrix in="SourceAlpha" type="matrix" values="0 0 0 0 0 0 0 0 0 0 0 0 0 0 0 0 0 0 127 0" result="hardAlpha"/>
<feOffset dy="5.5"/>
<feGaussianBlur stdDeviation="2"/>
<feComposite in2="hardAlpha" operator="out"/>
<feColorMatrix type="matrix" values="0 0 0 0 0 0 0 0 0 0 0 0 0 0 0 0 0 0 0.35 0"/>
<feBlend mode="normal" in2="BackgroundImageFix" result="effect1_dropShadow_107_14"/>
<feBlend mode="normal" in="SourceGraphic" in2="effect1_dropShadow_107_14" result="shape"/>
</filter>
<filter id="filter2_d_107_14" x="-23.4233" y="-229.234" width="1710.94" height="1094.5" filterUnits="userSpaceOnUse" color-interpolation-filters="sRGB">
<feFlood flood-opacity="0" result="BackgroundImageFix"/>
<feColorMatrix in="SourceAlpha" type="matrix" values="0 0 0 0 0 0 0 0 0 0 0 0 0 0 0 0 0 0 127 0" result="hardAlpha"/>
<feOffset dy="5.5"/>
<feGaussianBlur stdDeviation="2"/>
<feComposite in2="hardAlpha" operator="out"/>
<feColorMatrix type="matrix" values="0 0 0 0 0 0 0 0 0 0 0 0 0 0 0 0 0 0 0.35 0"/>
<feBlend mode="normal" in2="BackgroundImageFix" result="effect1_dropShadow_107_14"/>
<feBlend mode="normal" in="SourceGraphic" in2="effect1_dropShadow_107_14" result="shape"/>
</filter>
<filter id="filter3_d_107_14" x="141.112" y="-207.641" width="1532.71" height="1056.08" filterUnits="userSpaceOnUse" color-interpolation-filters="sRGB">
<feFlood flood-opacity="0" result="BackgroundImageFix"/>
<feColorMatrix in="SourceAlpha" type="matrix" values="0 0 0 0 0 0 0 0 0 0 0 0 0 0 0 0 0 0 127 0" result="hardAlpha"/>
<feOffset dy="5.5"/>
<feGaussianBlur stdDeviation="2"/>
<feComposite in2="hardAlpha" operator="out"/>
<feColorMatrix type="matrix" values="0 0 0 0 0 0 0 0 0 0 0 0 0 0 0 0 0 0 0.35 0"/>
<feBlend mode="normal" in2="BackgroundImageFix" result="effect1_dropShadow_107_14"/>
<feBlend mode="normal" in="SourceGraphic" in2="effect1_dropShadow_107_14" result="shape"/>
</filter>
<clipPath id="clip0_107_14">
<rect width="1707" height="311" fill="white" transform="translate(0.142334 0.86499)"/>
</clipPath>
</defs>
</svg>
