<svg width="1707" height="311" viewBox="0 0 1707 311" fill="none" xmlns="http://www.w3.org/2000/svg">
<path d="M174.99 150.652C166.798 150.652 160.686 147.676 156.654 141.724C152.686 135.772 150.702 127.196 150.702 115.996C150.702 104.796 152.686 96.22 156.654 90.268C160.686 84.316 166.798 81.34 174.99 81.34C178.062 81.34 180.718 81.756 182.958 82.588C185.198 83.42 187.118 84.54 188.718 85.948C190.318 87.356 191.662 88.956 192.75 90.748C193.838 92.476 194.798 94.236 195.63 96.028L188.718 99.196C188.142 97.724 187.47 96.348 186.702 95.068C185.934 93.724 185.006 92.572 183.918 91.612C182.894 90.588 181.646 89.788 180.174 89.212C178.766 88.636 177.038 88.348 174.99 88.348C169.678 88.348 165.71 90.364 163.086 94.396C160.526 98.428 159.246 103.804 159.246 110.524V121.468C159.246 128.188 160.526 133.564 163.086 137.596C165.71 141.628 169.678 143.644 174.99 143.644C177.038 143.644 178.766 143.356 180.174 142.78C181.646 142.204 182.894 141.436 183.918 140.476C185.006 139.452 185.934 138.3 186.702 137.02C187.47 135.676 188.142 134.268 188.718 132.796L195.63 135.964C194.798 137.82 193.838 139.612 192.75 141.34C191.662 143.068 190.318 144.636 188.718 146.044C187.118 147.452 185.198 148.572 182.958 149.404C180.718 150.236 178.062 150.652 174.99 150.652ZM210.953 78.46H218.633V108.028H219.017C219.529 106.812 220.169 105.66 220.937 104.572C221.705 103.42 222.633 102.428 223.721 101.596C224.873 100.764 226.217 100.092 227.753 99.58C229.289 99.068 231.081 98.812 233.129 98.812C238.313 98.812 242.473 100.476 245.609 103.804C248.745 107.068 250.313 111.708 250.313 117.724V149.5H242.633V119.068C242.633 114.524 241.641 111.164 239.657 108.988C237.673 106.748 234.761 105.628 230.921 105.628C229.385 105.628 227.881 105.82 226.409 106.204C224.937 106.588 223.625 107.164 222.473 107.932C221.321 108.7 220.393 109.692 219.689 110.908C218.985 112.124 218.633 113.532 218.633 115.132V149.5H210.953V78.46ZM287.907 150.652C284.451 150.652 281.315 150.044 278.499 148.828C275.747 147.612 273.379 145.884 271.395 143.644C269.475 141.34 268.003 138.62 266.979 135.484C265.955 132.284 265.443 128.7 265.443 124.732C265.443 120.828 265.955 117.276 266.979 114.076C268.003 110.876 269.475 108.156 271.395 105.916C273.379 103.612 275.747 101.852 278.499 100.636C281.315 99.42 284.451 98.812 287.907 98.812C291.363 98.812 294.467 99.42 297.219 100.636C300.035 101.852 302.403 103.612 304.323 105.916C306.307 108.156 307.811 110.876 308.835 114.076C309.859 117.276 310.371 120.828 310.371 124.732C310.371 128.7 309.859 132.284 308.835 135.484C307.811 138.62 306.307 141.34 304.323 143.644C302.403 145.884 300.035 147.612 297.219 148.828C294.467 150.044 291.363 150.652 287.907 150.652ZM287.907 144.028C292.195 144.028 295.651 142.748 298.275 140.188C300.899 137.628 302.211 133.66 302.211 128.284V121.18C302.211 115.804 300.899 111.836 298.275 109.276C295.651 106.716 292.195 105.436 287.907 105.436C283.619 105.436 280.163 106.716 277.539 109.276C274.915 111.836 273.603 115.804 273.603 121.18V128.284C273.603 133.66 274.915 137.628 277.539 140.188C280.163 142.748 283.619 144.028 287.907 144.028ZM345.47 150.652C342.014 150.652 338.878 150.044 336.062 148.828C333.31 147.612 330.942 145.884 328.958 143.644C327.038 141.34 325.566 138.62 324.542 135.484C323.518 132.284 323.006 128.7 323.006 124.732C323.006 120.828 323.518 117.276 324.542 114.076C325.566 110.876 327.038 108.156 328.958 105.916C330.942 103.612 333.31 101.852 336.062 100.636C338.878 99.42 342.014 98.812 345.47 98.812C348.926 98.812 352.03 99.42 354.782 100.636C357.598 101.852 359.966 103.612 361.886 105.916C363.87 108.156 365.374 110.876 366.398 114.076C367.422 117.276 367.934 120.828 367.934 124.732C367.934 128.7 367.422 132.284 366.398 135.484C365.374 138.62 363.87 141.34 361.886 143.644C359.966 145.884 357.598 147.612 354.782 148.828C352.03 150.044 348.926 150.652 345.47 150.652ZM345.47 144.028C349.758 144.028 353.214 142.748 355.838 140.188C358.462 137.628 359.774 133.66 359.774 128.284V121.18C359.774 115.804 358.462 111.836 355.838 109.276C353.214 106.716 349.758 105.436 345.47 105.436C341.182 105.436 337.726 106.716 335.102 109.276C332.478 111.836 331.166 115.804 331.166 121.18V128.284C331.166 133.66 332.478 137.628 335.102 140.188C337.726 142.748 341.182 144.028 345.47 144.028ZM403.608 150.652C398.424 150.652 393.944 149.788 390.168 148.06C386.456 146.268 383.288 143.9 380.664 140.956L385.848 136.444C388.216 138.94 390.808 140.86 393.624 142.204C396.44 143.548 399.832 144.22 403.8 144.22C407.64 144.22 410.776 143.548 413.208 142.204C415.704 140.796 416.952 138.62 416.952 135.676C416.952 134.396 416.696 133.34 416.184 132.508C415.736 131.612 415.096 130.908 414.264 130.396C413.432 129.884 412.504 129.5 411.48 129.244C410.456 128.924 409.368 128.668 408.216 128.476L400.44 127.324C398.712 127.068 396.824 126.716 394.776 126.268C392.792 125.82 390.968 125.116 389.304 124.156C387.64 123.132 386.232 121.788 385.08 120.124C383.992 118.46 383.448 116.284 383.448 113.596C383.448 111.1 383.928 108.956 384.888 107.164C385.912 105.308 387.32 103.772 389.112 102.556C390.904 101.276 393.016 100.348 395.448 99.772C397.88 99.132 400.536 98.812 403.416 98.812C407.896 98.812 411.768 99.516 415.032 100.924C418.36 102.332 421.208 104.284 423.576 106.78L418.584 111.484C418.008 110.78 417.272 110.076 416.376 109.372C415.544 108.604 414.488 107.932 413.208 107.356C411.992 106.716 410.552 106.204 408.888 105.82C407.224 105.436 405.304 105.244 403.128 105.244C399.224 105.244 396.216 105.916 394.104 107.26C392.056 108.604 391.032 110.556 391.032 113.116C391.032 114.396 391.256 115.484 391.704 116.38C392.216 117.212 392.888 117.884 393.72 118.396C394.552 118.908 395.48 119.324 396.504 119.644C397.592 119.9 398.68 120.124 399.768 120.316L407.544 121.468C409.336 121.724 411.224 122.076 413.208 122.524C415.192 122.972 417.016 123.708 418.68 124.732C420.344 125.692 421.72 127.004 422.808 128.668C423.96 130.332 424.536 132.508 424.536 135.196C424.536 140.124 422.616 143.932 418.776 146.62C415 149.308 409.944 150.652 403.608 150.652ZM461.459 150.652C457.875 150.652 454.643 150.044 451.763 148.828C448.947 147.612 446.515 145.884 444.467 143.644C442.483 141.34 440.947 138.62 439.859 135.484C438.771 132.284 438.227 128.732 438.227 124.828C438.227 120.86 438.771 117.276 439.859 114.076C441.011 110.876 442.579 108.156 444.563 105.916C446.547 103.612 448.915 101.852 451.667 100.636C454.483 99.42 457.587 98.812 460.979 98.812C464.307 98.812 467.315 99.42 470.003 100.636C472.755 101.852 475.091 103.548 477.011 105.724C478.931 107.836 480.403 110.364 481.427 113.308C482.451 116.252 482.963 119.484 482.963 123.004V126.652H446.291V128.956C446.291 131.132 446.643 133.148 447.347 135.004C448.051 136.86 449.043 138.46 450.323 139.804C451.667 141.148 453.267 142.204 455.123 142.972C457.043 143.676 459.155 144.028 461.459 144.028C464.787 144.028 467.667 143.26 470.099 141.724C472.531 140.188 474.387 138.076 475.667 135.388L481.331 139.228C479.859 142.556 477.395 145.308 473.939 147.484C470.547 149.596 466.387 150.652 461.459 150.652ZM460.979 105.148C458.867 105.148 456.915 105.532 455.123 106.3C453.331 107.068 451.763 108.124 450.419 109.468C449.139 110.812 448.115 112.412 447.347 114.268C446.643 116.06 446.291 118.044 446.291 120.22V120.892H474.707V119.836C474.707 117.66 474.355 115.676 473.651 113.884C473.011 112.092 472.083 110.556 470.867 109.276C469.715 107.932 468.275 106.908 466.547 106.204C464.883 105.5 463.027 105.148 460.979 105.148ZM571.688 149.5V123.196L548.552 82.492H557.768L567.368 99.964L575.528 115.228H575.912L584.264 99.964L593.864 82.492H602.888L579.752 123.196V149.5H571.688ZM633.282 150.652C629.826 150.652 626.69 150.044 623.874 148.828C621.122 147.612 618.754 145.884 616.77 143.644C614.85 141.34 613.378 138.62 612.354 135.484C611.33 132.284 610.818 128.7 610.818 124.732C610.818 120.828 611.33 117.276 612.354 114.076C613.378 110.876 614.85 108.156 616.77 105.916C618.754 103.612 621.122 101.852 623.874 100.636C626.69 99.42 629.826 98.812 633.282 98.812C636.738 98.812 639.842 99.42 642.594 100.636C645.41 101.852 647.778 103.612 649.698 105.916C651.682 108.156 653.186 110.876 654.21 114.076C655.234 117.276 655.746 120.828 655.746 124.732C655.746 128.7 655.234 132.284 654.21 135.484C653.186 138.62 651.682 141.34 649.698 143.644C647.778 145.884 645.41 147.612 642.594 148.828C639.842 150.044 636.738 150.652 633.282 150.652ZM633.282 144.028C637.57 144.028 641.026 142.748 643.65 140.188C646.274 137.628 647.586 133.66 647.586 128.284V121.18C647.586 115.804 646.274 111.836 643.65 109.276C641.026 106.716 637.57 105.436 633.282 105.436C628.994 105.436 625.538 106.716 622.914 109.276C620.29 111.836 618.978 115.804 618.978 121.18V128.284C618.978 133.66 620.29 137.628 622.914 140.188C625.538 142.748 628.994 144.028 633.282 144.028ZM702.557 141.436H702.173C701.661 142.652 701.021 143.836 700.253 144.988C699.485 146.076 698.525 147.036 697.373 147.868C696.285 148.7 694.973 149.372 693.437 149.884C691.901 150.396 690.109 150.652 688.061 150.652C682.877 150.652 678.717 149.02 675.581 145.756C672.445 142.428 670.877 137.756 670.877 131.74V99.964H678.557V130.396C678.557 134.94 679.549 138.332 681.533 140.572C683.517 142.748 686.429 143.836 690.269 143.836C691.805 143.836 693.309 143.644 694.781 143.26C696.253 142.876 697.565 142.3 698.717 141.532C699.869 140.764 700.797 139.804 701.501 138.652C702.205 137.436 702.557 135.996 702.557 134.332V99.964H710.237V149.5H702.557V141.436ZM726.999 142.972H741.495V106.492H726.999V99.964H749.175V112.444H749.655C750.679 108.54 752.599 105.5 755.415 103.324C758.295 101.084 761.943 99.964 766.359 99.964H773.271V107.644H763.959C759.543 107.644 755.959 108.924 753.207 111.484C750.519 114.044 749.175 117.404 749.175 121.564V142.972H768.375V149.5H726.999V142.972ZM863.532 150.652C859.436 150.652 855.916 149.884 852.972 148.348C850.028 146.748 847.596 144.476 845.676 141.532C843.756 138.588 842.348 134.972 841.452 130.684C840.556 126.396 840.108 121.5 840.108 115.996C840.108 110.556 840.556 105.692 841.452 101.404C842.348 97.052 843.756 93.404 845.676 90.46C847.596 87.516 850.028 85.276 852.972 83.74C855.916 82.14 859.436 81.34 863.532 81.34C867.628 81.34 871.148 82.14 874.092 83.74C877.036 85.276 879.468 87.516 881.388 90.46C883.308 93.404 884.716 97.052 885.612 101.404C886.508 105.692 886.956 110.556 886.956 115.996C886.956 121.5 886.508 126.396 885.612 130.684C884.716 134.972 883.308 138.588 881.388 141.532C879.468 144.476 877.036 146.748 874.092 148.348C871.148 149.884 867.628 150.652 863.532 150.652ZM863.532 143.644C866.22 143.644 868.492 143.132 870.348 142.108C872.204 141.02 873.74 139.516 874.956 137.596C876.172 135.676 877.036 133.372 877.548 130.684C878.124 127.932 878.412 124.86 878.412 121.468V110.524C878.412 107.196 878.124 104.156 877.548 101.404C877.036 98.652 876.172 96.316 874.956 94.396C873.74 92.476 872.204 91.004 870.348 89.98C868.492 88.892 866.22 88.348 863.532 88.348C860.844 88.348 858.572 88.892 856.716 89.98C854.86 91.004 853.324 92.476 852.108 94.396C850.892 96.316 849.996 98.652 849.42 101.404C848.908 104.156 848.652 107.196 848.652 110.524V121.468C848.652 124.86 848.908 127.932 849.42 130.684C849.996 133.372 850.892 135.676 852.108 137.596C853.324 139.516 854.86 141.02 856.716 142.108C858.572 143.132 860.844 143.644 863.532 143.644ZM895.175 99.964H901.991L907.655 142.78H908.519L916.967 99.964H925.415L933.863 142.78H934.727L940.391 99.964H947.015L939.431 149.5H929.447L921.575 108.028H920.807L912.743 149.5H902.759L895.175 99.964ZM959.265 149.5V99.964H966.945V108.028H967.329C967.841 106.812 968.481 105.66 969.249 104.572C970.017 103.42 970.945 102.428 972.033 101.596C973.185 100.764 974.529 100.092 976.065 99.58C977.601 99.068 979.393 98.812 981.441 98.812C986.625 98.812 990.785 100.476 993.921 103.804C997.057 107.068 998.625 111.708 998.625 117.724V149.5H990.945V119.068C990.945 114.524 989.953 111.164 987.969 108.988C985.985 106.748 983.073 105.628 979.233 105.628C977.697 105.628 976.193 105.82 974.721 106.204C973.249 106.588 971.937 107.164 970.785 107.932C969.633 108.7 968.705 109.692 968.001 110.908C967.297 112.124 966.945 113.532 966.945 115.132V149.5H959.265ZM1111.16 149.5L1105.49 130.396H1081.97L1076.31 149.5H1067.96L1088.5 82.492H1099.16L1119.7 149.5H1111.16ZM1094.17 91.036H1093.3L1083.89 123.388H1103.57L1094.17 91.036ZM1163.34 141.436H1162.96C1159.76 147.58 1154.67 150.652 1147.7 150.652C1141.62 150.652 1136.85 148.38 1133.39 143.836C1130 139.292 1128.3 132.924 1128.3 124.732C1128.3 116.54 1130 110.172 1133.39 105.628C1136.85 101.084 1141.62 98.812 1147.7 98.812C1154.67 98.812 1159.76 101.884 1162.96 108.028H1163.34V78.46H1171.02V149.5H1163.34V141.436ZM1150.67 143.836C1152.4 143.836 1154.03 143.612 1155.57 143.164C1157.1 142.716 1158.45 142.076 1159.6 141.244C1160.75 140.348 1161.65 139.292 1162.29 138.076C1162.99 136.796 1163.34 135.324 1163.34 133.66V115.804C1163.34 114.14 1162.99 112.7 1162.29 111.484C1161.65 110.204 1160.75 109.148 1159.6 108.316C1158.45 107.42 1157.1 106.748 1155.57 106.3C1154.03 105.852 1152.4 105.628 1150.67 105.628C1146.19 105.628 1142.7 107.004 1140.21 109.756C1137.78 112.444 1136.56 116.028 1136.56 120.508V128.956C1136.56 133.436 1137.78 137.052 1140.21 139.804C1142.7 142.492 1146.19 143.836 1150.67 143.836ZM1204.01 149.5L1186.25 99.964H1194.03L1201.13 120.7L1208.81 143.068H1209.2L1216.88 120.7L1223.98 99.964H1231.56L1213.8 149.5H1204.01ZM1267.33 150.652C1263.75 150.652 1260.52 150.044 1257.64 148.828C1254.82 147.612 1252.39 145.884 1250.34 143.644C1248.36 141.34 1246.82 138.62 1245.73 135.484C1244.65 132.284 1244.1 128.732 1244.1 124.828C1244.1 120.86 1244.65 117.276 1245.73 114.076C1246.89 110.876 1248.45 108.156 1250.44 105.916C1252.42 103.612 1254.79 101.852 1257.54 100.636C1260.36 99.42 1263.46 98.812 1266.85 98.812C1270.18 98.812 1273.19 99.42 1275.88 100.636C1278.63 101.852 1280.97 103.548 1282.89 105.724C1284.81 107.836 1286.28 110.364 1287.3 113.308C1288.33 116.252 1288.84 119.484 1288.84 123.004V126.652H1252.17V128.956C1252.17 131.132 1252.52 133.148 1253.22 135.004C1253.93 136.86 1254.92 138.46 1256.2 139.804C1257.54 141.148 1259.14 142.204 1261 142.972C1262.92 143.676 1265.03 144.028 1267.33 144.028C1270.66 144.028 1273.54 143.26 1275.97 141.724C1278.41 140.188 1280.26 138.076 1281.54 135.388L1287.21 139.228C1285.73 142.556 1283.27 145.308 1279.81 147.484C1276.42 149.596 1272.26 150.652 1267.33 150.652ZM1266.85 105.148C1264.74 105.148 1262.79 105.532 1261 106.3C1259.21 107.068 1257.64 108.124 1256.29 109.468C1255.01 110.812 1253.99 112.412 1253.22 114.268C1252.52 116.06 1252.17 118.044 1252.17 120.22V120.892H1280.58V119.836C1280.58 117.66 1280.23 115.676 1279.53 113.884C1278.89 112.092 1277.96 110.556 1276.74 109.276C1275.59 107.932 1274.15 106.908 1272.42 106.204C1270.76 105.5 1268.9 105.148 1266.85 105.148ZM1304.64 149.5V99.964H1312.32V108.028H1312.7C1313.22 106.812 1313.86 105.66 1314.62 104.572C1315.39 103.42 1316.32 102.428 1317.41 101.596C1318.56 100.764 1319.9 100.092 1321.44 99.58C1322.98 99.068 1324.77 98.812 1326.82 98.812C1332 98.812 1336.16 100.476 1339.3 103.804C1342.43 107.068 1344 111.708 1344 117.724V149.5H1336.32V119.068C1336.32 114.524 1335.33 111.164 1333.34 108.988C1331.36 106.748 1328.45 105.628 1324.61 105.628C1323.07 105.628 1321.57 105.82 1320.1 106.204C1318.62 106.588 1317.31 107.164 1316.16 107.932C1315.01 108.7 1314.08 109.692 1313.38 110.908C1312.67 112.124 1312.32 113.532 1312.32 115.132V149.5H1304.64ZM1383.99 149.5C1380.22 149.5 1377.43 148.444 1375.64 146.332C1373.91 144.22 1373.05 141.5 1373.05 138.172V106.492H1356.54V99.964H1368.83C1370.49 99.964 1371.64 99.644 1372.28 99.004C1372.99 98.3 1373.34 97.116 1373.34 95.452V82.492H1380.73V99.964H1403.29V106.492H1380.73V142.972H1403.29V149.5H1383.99ZM1450.87 141.436H1450.49C1449.97 142.652 1449.33 143.836 1448.57 144.988C1447.8 146.076 1446.84 147.036 1445.69 147.868C1444.6 148.7 1443.29 149.372 1441.75 149.884C1440.21 150.396 1438.42 150.652 1436.37 150.652C1431.19 150.652 1427.03 149.02 1423.89 145.756C1420.76 142.428 1419.19 137.756 1419.19 131.74V99.964H1426.87V130.396C1426.87 134.94 1427.86 138.332 1429.85 140.572C1431.83 142.748 1434.74 143.836 1438.58 143.836C1440.12 143.836 1441.62 143.644 1443.09 143.26C1444.57 142.876 1445.88 142.3 1447.03 141.532C1448.18 140.764 1449.11 139.804 1449.81 138.652C1450.52 137.436 1450.87 135.996 1450.87 134.332V99.964H1458.55V149.5H1450.87V141.436ZM1475.31 142.972H1489.81V106.492H1475.31V99.964H1497.49V112.444H1497.97C1498.99 108.54 1500.91 105.5 1503.73 103.324C1506.61 101.084 1510.26 99.964 1514.67 99.964H1521.58V107.644H1512.27C1507.86 107.644 1504.27 108.924 1501.52 111.484C1498.83 114.044 1497.49 117.404 1497.49 121.564V142.972H1516.69V149.5H1475.31V142.972ZM1555.15 150.652C1551.56 150.652 1548.33 150.044 1545.45 148.828C1542.63 147.612 1540.2 145.884 1538.15 143.644C1536.17 141.34 1534.63 138.62 1533.55 135.484C1532.46 132.284 1531.91 128.732 1531.91 124.828C1531.91 120.86 1532.46 117.276 1533.55 114.076C1534.7 110.876 1536.27 108.156 1538.25 105.916C1540.23 103.612 1542.6 101.852 1545.35 100.636C1548.17 99.42 1551.27 98.812 1554.67 98.812C1557.99 98.812 1561 99.42 1563.69 100.636C1566.44 101.852 1568.78 103.548 1570.7 105.724C1572.62 107.836 1574.09 110.364 1575.11 113.308C1576.14 116.252 1576.65 119.484 1576.65 123.004V126.652H1539.98V128.956C1539.98 131.132 1540.33 133.148 1541.03 135.004C1541.74 136.86 1542.73 138.46 1544.01 139.804C1545.35 141.148 1546.95 142.204 1548.81 142.972C1550.73 143.676 1552.84 144.028 1555.15 144.028C1558.47 144.028 1561.35 143.26 1563.79 141.724C1566.22 140.188 1568.07 138.076 1569.35 135.388L1575.02 139.228C1573.55 142.556 1571.08 145.308 1567.63 147.484C1564.23 149.596 1560.07 150.652 1555.15 150.652ZM1554.67 105.148C1552.55 105.148 1550.6 105.532 1548.81 106.3C1547.02 107.068 1545.45 108.124 1544.11 109.468C1542.83 110.812 1541.8 112.412 1541.03 114.268C1540.33 116.06 1539.98 118.044 1539.98 120.22V120.892H1568.39V119.836C1568.39 117.66 1568.04 115.676 1567.34 113.884C1566.7 112.092 1565.77 110.556 1564.55 109.276C1563.4 107.932 1561.96 106.908 1560.23 106.204C1558.57 105.5 1556.71 105.148 1554.67 105.148Z" fill="black"/>
<path d="M718.028 219.415V216.601H725.336V192.913H718.028V190.099H736.172V192.913H728.864V216.601H736.172V219.415H718.028ZM743.8 219.415V197.743H747.16V201.271H747.328C747.552 200.739 747.832 200.235 748.168 199.759C748.504 199.255 748.91 198.821 749.386 198.457C749.89 198.093 750.478 197.799 751.15 197.575C751.822 197.351 752.606 197.239 753.502 197.239C755.77 197.239 757.59 197.967 758.962 199.423C760.334 200.851 761.02 202.881 761.02 205.513V219.415H757.66V206.101C757.66 204.113 757.226 202.643 756.358 201.691C755.49 200.711 754.216 200.221 752.536 200.221C751.864 200.221 751.206 200.305 750.562 200.473C749.918 200.641 749.344 200.893 748.84 201.229C748.336 201.565 747.93 201.999 747.622 202.531C747.314 203.063 747.16 203.679 747.16 204.379V219.415H743.8ZM794.041 197.743H797.401V201.271H797.569C798.969 198.583 801.195 197.239 804.247 197.239C806.907 197.239 808.979 198.233 810.463 200.221C811.975 202.209 812.731 204.995 812.731 208.579C812.731 212.163 811.975 214.949 810.463 216.937C808.979 218.925 806.907 219.919 804.247 219.919C801.195 219.919 798.969 218.575 797.569 215.887H797.401V227.815H794.041V197.743ZM802.945 216.937C804.905 216.937 806.417 216.349 807.481 215.173C808.573 213.969 809.119 212.387 809.119 210.427V206.731C809.119 204.771 808.573 203.203 807.481 202.027C806.417 200.823 804.905 200.221 802.945 200.221C802.189 200.221 801.475 200.319 800.803 200.515C800.131 200.711 799.543 201.005 799.039 201.397C798.535 201.761 798.129 202.223 797.821 202.783C797.541 203.315 797.401 203.945 797.401 204.673V212.485C797.401 213.213 797.541 213.857 797.821 214.417C798.129 214.949 798.535 215.411 799.039 215.803C799.543 216.167 800.131 216.447 800.803 216.643C801.475 216.839 802.189 216.937 802.945 216.937ZM818.468 216.559H824.81V200.599H818.468V197.743H828.17V203.203H828.38C828.828 201.495 829.668 200.165 830.9 199.213C832.16 198.233 833.756 197.743 835.688 197.743H838.712V201.103H834.638C832.706 201.103 831.138 201.663 829.934 202.783C828.758 203.903 828.17 205.373 828.17 207.193V216.559H836.57V219.415H818.468V216.559ZM853.018 219.919C851.506 219.919 850.134 219.653 848.902 219.121C847.698 218.589 846.662 217.833 845.794 216.853C844.954 215.845 844.31 214.655 843.862 213.283C843.414 211.883 843.19 210.315 843.19 208.579C843.19 206.871 843.414 205.317 843.862 203.917C844.31 202.517 844.954 201.327 845.794 200.347C846.662 199.339 847.698 198.569 848.902 198.037C850.134 197.505 851.506 197.239 853.018 197.239C854.53 197.239 855.888 197.505 857.092 198.037C858.324 198.569 859.36 199.339 860.2 200.347C861.068 201.327 861.726 202.517 862.174 203.917C862.622 205.317 862.846 206.871 862.846 208.579C862.846 210.315 862.622 211.883 862.174 213.283C861.726 214.655 861.068 215.845 860.2 216.853C859.36 217.833 858.324 218.589 857.092 219.121C855.888 219.653 854.53 219.919 853.018 219.919ZM853.018 217.021C854.894 217.021 856.406 216.461 857.554 215.341C858.702 214.221 859.276 212.485 859.276 210.133V207.025C859.276 204.673 858.702 202.937 857.554 201.817C856.406 200.697 854.894 200.137 853.018 200.137C851.142 200.137 849.63 200.697 848.482 201.817C847.334 202.937 846.76 204.673 846.76 207.025V210.133C846.76 212.485 847.334 214.221 848.482 215.341C849.63 216.461 851.142 217.021 853.018 217.021ZM889.164 221.893C889.164 224.077 888.254 225.687 886.434 226.723C884.614 227.787 881.884 228.319 878.244 228.319C874.744 228.319 872.224 227.857 870.684 226.933C869.172 226.009 868.416 224.679 868.416 222.943C868.416 221.767 868.724 220.857 869.34 220.213C869.956 219.569 870.824 219.093 871.944 218.785V218.281C871.328 217.973 870.852 217.581 870.516 217.105C870.18 216.629 870.012 216.027 870.012 215.299C870.012 214.179 870.376 213.339 871.104 212.779C871.86 212.219 872.798 211.799 873.918 211.519V211.351C872.574 210.763 871.524 209.895 870.768 208.747C870.04 207.599 869.676 206.255 869.676 204.715C869.676 203.623 869.872 202.615 870.264 201.691C870.656 200.767 871.216 199.983 871.944 199.339C872.7 198.667 873.596 198.149 874.632 197.785C875.668 197.421 876.816 197.239 878.076 197.239C879.7 197.239 881.128 197.533 882.36 198.121V197.743C882.36 196.903 882.556 196.203 882.948 195.643C883.34 195.083 884.012 194.803 884.964 194.803H888.954V197.743H884.082V199.213C884.866 199.885 885.468 200.683 885.888 201.607C886.308 202.531 886.518 203.567 886.518 204.715C886.518 205.807 886.308 206.815 885.888 207.739C885.496 208.663 884.936 209.461 884.208 210.133C883.48 210.777 882.584 211.281 881.52 211.645C880.484 212.009 879.336 212.191 878.076 212.191C877.712 212.191 877.362 212.177 877.026 212.149C876.69 212.121 876.354 212.079 876.018 212.023C875.682 212.079 875.332 212.177 874.968 212.317C874.604 212.429 874.268 212.597 873.96 212.821C873.652 213.017 873.4 213.255 873.204 213.535C873.008 213.815 872.91 214.137 872.91 214.501C872.91 215.145 873.232 215.579 873.876 215.803C874.52 215.999 875.36 216.097 876.396 216.097H881.184C883.984 216.097 886.014 216.629 887.274 217.693C888.534 218.729 889.164 220.129 889.164 221.893ZM886.014 222.061C886.014 221.193 885.664 220.493 884.964 219.961C884.264 219.457 883.046 219.205 881.31 219.205H873.792C872.336 219.793 871.608 220.773 871.608 222.145C871.608 223.097 871.986 223.909 872.742 224.581C873.498 225.281 874.758 225.631 876.522 225.631H879.798C881.758 225.631 883.284 225.323 884.376 224.707C885.468 224.119 886.014 223.237 886.014 222.061ZM878.076 209.587C879.756 209.587 880.988 209.195 881.772 208.411C882.584 207.627 882.99 206.591 882.99 205.303V204.085C882.99 202.797 882.584 201.775 881.772 201.019C880.988 200.235 879.756 199.843 878.076 199.843C876.396 199.843 875.164 200.235 874.38 201.019C873.596 201.775 873.204 202.797 873.204 204.085V205.303C873.204 206.591 873.596 207.627 874.38 208.411C875.164 209.195 876.396 209.587 878.076 209.587ZM894.019 216.559H900.361V200.599H894.019V197.743H903.721V203.203H903.931C904.379 201.495 905.219 200.165 906.451 199.213C907.711 198.233 909.307 197.743 911.239 197.743H914.263V201.103H910.189C908.257 201.103 906.689 201.663 905.485 202.783C904.309 203.903 903.721 205.373 903.721 207.193V216.559H912.121V219.415H894.019V216.559ZM928.947 219.919C927.379 219.919 925.965 219.653 924.705 219.121C923.473 218.589 922.409 217.833 921.513 216.853C920.645 215.845 919.973 214.655 919.497 213.283C919.021 211.883 918.783 210.329 918.783 208.621C918.783 206.885 919.021 205.317 919.497 203.917C920.001 202.517 920.687 201.327 921.555 200.347C922.423 199.339 923.459 198.569 924.663 198.037C925.895 197.505 927.253 197.239 928.737 197.239C930.193 197.239 931.509 197.505 932.685 198.037C933.889 198.569 934.911 199.311 935.751 200.263C936.591 201.187 937.235 202.293 937.683 203.581C938.131 204.869 938.355 206.283 938.355 207.823V209.419H922.311V210.427C922.311 211.379 922.465 212.261 922.773 213.073C923.081 213.885 923.515 214.585 924.075 215.173C924.663 215.761 925.363 216.223 926.175 216.559C927.015 216.867 927.939 217.021 928.947 217.021C930.403 217.021 931.663 216.685 932.727 216.013C933.791 215.341 934.603 214.417 935.163 213.241L937.641 214.921C936.997 216.377 935.919 217.581 934.407 218.533C932.923 219.457 931.103 219.919 928.947 219.919ZM928.737 200.011C927.813 200.011 926.959 200.179 926.175 200.515C925.391 200.851 924.705 201.313 924.117 201.901C923.557 202.489 923.109 203.189 922.773 204.001C922.465 204.785 922.311 205.653 922.311 206.605V206.899H934.743V206.437C934.743 205.485 934.589 204.617 934.281 203.833C934.001 203.049 933.595 202.377 933.063 201.817C932.559 201.229 931.929 200.781 931.173 200.473C930.445 200.165 929.633 200.011 928.737 200.011ZM954.004 219.919C951.736 219.919 949.776 219.541 948.124 218.785C946.5 218.001 945.114 216.965 943.966 215.677L946.234 213.703C947.27 214.795 948.404 215.635 949.636 216.223C950.868 216.811 952.352 217.105 954.088 217.105C955.768 217.105 957.14 216.811 958.204 216.223C959.296 215.607 959.842 214.655 959.842 213.367C959.842 212.807 959.73 212.345 959.506 211.981C959.31 211.589 959.03 211.281 958.666 211.057C958.302 210.833 957.896 210.665 957.448 210.553C957 210.413 956.524 210.301 956.02 210.217L952.618 209.713C951.862 209.601 951.036 209.447 950.14 209.251C949.272 209.055 948.474 208.747 947.746 208.327C947.018 207.879 946.402 207.291 945.898 206.563C945.422 205.835 945.184 204.883 945.184 203.707C945.184 202.615 945.394 201.677 945.814 200.893C946.262 200.081 946.878 199.409 947.662 198.877C948.446 198.317 949.37 197.911 950.434 197.659C951.498 197.379 952.66 197.239 953.92 197.239C955.88 197.239 957.574 197.547 959.002 198.163C960.458 198.779 961.704 199.633 962.74 200.725L960.556 202.783C960.304 202.475 959.982 202.167 959.59 201.859C959.226 201.523 958.764 201.229 958.204 200.977C957.672 200.697 957.042 200.473 956.314 200.305C955.586 200.137 954.746 200.053 953.794 200.053C952.086 200.053 950.77 200.347 949.846 200.935C948.95 201.523 948.502 202.377 948.502 203.497C948.502 204.057 948.6 204.533 948.796 204.925C949.02 205.289 949.314 205.583 949.678 205.807C950.042 206.031 950.448 206.213 950.896 206.353C951.372 206.465 951.848 206.563 952.324 206.647L955.726 207.151C956.51 207.263 957.336 207.417 958.204 207.613C959.072 207.809 959.87 208.131 960.598 208.579C961.326 208.999 961.928 209.573 962.404 210.301C962.908 211.029 963.16 211.981 963.16 213.157C963.16 215.313 962.32 216.979 960.64 218.155C958.988 219.331 956.776 219.919 954.004 219.919ZM979.188 219.919C976.92 219.919 974.96 219.541 973.308 218.785C971.684 218.001 970.298 216.965 969.15 215.677L971.418 213.703C972.454 214.795 973.588 215.635 974.82 216.223C976.052 216.811 977.536 217.105 979.272 217.105C980.952 217.105 982.324 216.811 983.388 216.223C984.48 215.607 985.026 214.655 985.026 213.367C985.026 212.807 984.914 212.345 984.69 211.981C984.494 211.589 984.214 211.281 983.85 211.057C983.486 210.833 983.08 210.665 982.632 210.553C982.184 210.413 981.708 210.301 981.204 210.217L977.802 209.713C977.046 209.601 976.22 209.447 975.324 209.251C974.456 209.055 973.658 208.747 972.93 208.327C972.202 207.879 971.586 207.291 971.082 206.563C970.606 205.835 970.368 204.883 970.368 203.707C970.368 202.615 970.578 201.677 970.998 200.893C971.446 200.081 972.062 199.409 972.846 198.877C973.63 198.317 974.554 197.911 975.618 197.659C976.682 197.379 977.844 197.239 979.104 197.239C981.064 197.239 982.758 197.547 984.186 198.163C985.642 198.779 986.888 199.633 987.924 200.725L985.74 202.783C985.488 202.475 985.166 202.167 984.774 201.859C984.41 201.523 983.948 201.229 983.388 200.977C982.856 200.697 982.226 200.473 981.498 200.305C980.77 200.137 979.93 200.053 978.978 200.053C977.27 200.053 975.954 200.347 975.03 200.935C974.134 201.523 973.686 202.377 973.686 203.497C973.686 204.057 973.784 204.533 973.98 204.925C974.204 205.289 974.498 205.583 974.862 205.807C975.226 206.031 975.632 206.213 976.08 206.353C976.556 206.465 977.032 206.563 977.508 206.647L980.91 207.151C981.694 207.263 982.52 207.417 983.388 207.613C984.256 207.809 985.054 208.131 985.782 208.579C986.51 208.999 987.112 209.573 987.588 210.301C988.092 211.029 988.344 211.981 988.344 213.157C988.344 215.313 987.504 216.979 985.824 218.155C984.172 219.331 981.96 219.919 979.188 219.919Z" fill="#1400FF"/>
<rect x="44.3577" y="42" width="1619.25" height="228.085" stroke="black" stroke-width="19"/>
</svg>
