<svg width="1707" height="311" viewBox="0 0 1707 311" fill="none" xmlns="http://www.w3.org/2000/svg">
<path d="M174.99 130.652C166.798 130.652 160.686 127.676 156.654 121.724C152.686 115.772 150.702 107.196 150.702 95.996C150.702 84.796 152.686 76.22 156.654 70.268C160.686 64.316 166.798 61.34 174.99 61.34C178.062 61.34 180.718 61.756 182.958 62.588C185.198 63.42 187.118 64.54 188.718 65.948C190.318 67.356 191.662 68.956 192.75 70.748C193.838 72.476 194.798 74.236 195.63 76.028L188.718 79.196C188.142 77.724 187.47 76.348 186.702 75.068C185.934 73.724 185.006 72.572 183.918 71.612C182.894 70.588 181.646 69.788 180.174 69.212C178.766 68.636 177.038 68.348 174.99 68.348C169.678 68.348 165.71 70.364 163.086 74.396C160.526 78.428 159.246 83.804 159.246 90.524V101.468C159.246 108.188 160.526 113.564 163.086 117.596C165.71 121.628 169.678 123.644 174.99 123.644C177.038 123.644 178.766 123.356 180.174 122.78C181.646 122.204 182.894 121.436 183.918 120.476C185.006 119.452 185.934 118.3 186.702 117.02C187.47 115.676 188.142 114.268 188.718 112.796L195.63 115.964C194.798 117.82 193.838 119.612 192.75 121.34C191.662 123.068 190.318 124.636 188.718 126.044C187.118 127.452 185.198 128.572 182.958 129.404C180.718 130.236 178.062 130.652 174.99 130.652ZM210.953 58.46H218.633V88.028H219.017C219.529 86.812 220.169 85.66 220.937 84.572C221.705 83.42 222.633 82.428 223.721 81.596C224.873 80.764 226.217 80.092 227.753 79.58C229.289 79.068 231.081 78.812 233.129 78.812C238.313 78.812 242.473 80.476 245.609 83.804C248.745 87.068 250.313 91.708 250.313 97.724V129.5H242.633V99.068C242.633 94.524 241.641 91.164 239.657 88.988C237.673 86.748 234.761 85.628 230.921 85.628C229.385 85.628 227.881 85.82 226.409 86.204C224.937 86.588 223.625 87.164 222.473 87.932C221.321 88.7 220.393 89.692 219.689 90.908C218.985 92.124 218.633 93.532 218.633 95.132V129.5H210.953V58.46ZM287.907 130.652C284.451 130.652 281.315 130.044 278.499 128.828C275.747 127.612 273.379 125.884 271.395 123.644C269.475 121.34 268.003 118.62 266.979 115.484C265.955 112.284 265.443 108.7 265.443 104.732C265.443 100.828 265.955 97.276 266.979 94.076C268.003 90.876 269.475 88.156 271.395 85.916C273.379 83.612 275.747 81.852 278.499 80.636C281.315 79.42 284.451 78.812 287.907 78.812C291.363 78.812 294.467 79.42 297.219 80.636C300.035 81.852 302.403 83.612 304.323 85.916C306.307 88.156 307.811 90.876 308.835 94.076C309.859 97.276 310.371 100.828 310.371 104.732C310.371 108.7 309.859 112.284 308.835 115.484C307.811 118.62 306.307 121.34 304.323 123.644C302.403 125.884 300.035 127.612 297.219 128.828C294.467 130.044 291.363 130.652 287.907 130.652ZM287.907 124.028C292.195 124.028 295.651 122.748 298.275 120.188C300.899 117.628 302.211 113.66 302.211 108.284V101.18C302.211 95.804 300.899 91.836 298.275 89.276C295.651 86.716 292.195 85.436 287.907 85.436C283.619 85.436 280.163 86.716 277.539 89.276C274.915 91.836 273.603 95.804 273.603 101.18V108.284C273.603 113.66 274.915 117.628 277.539 120.188C280.163 122.748 283.619 124.028 287.907 124.028ZM345.47 130.652C342.014 130.652 338.878 130.044 336.062 128.828C333.31 127.612 330.942 125.884 328.958 123.644C327.038 121.34 325.566 118.62 324.542 115.484C323.518 112.284 323.006 108.7 323.006 104.732C323.006 100.828 323.518 97.276 324.542 94.076C325.566 90.876 327.038 88.156 328.958 85.916C330.942 83.612 333.31 81.852 336.062 80.636C338.878 79.42 342.014 78.812 345.47 78.812C348.926 78.812 352.03 79.42 354.782 80.636C357.598 81.852 359.966 83.612 361.886 85.916C363.87 88.156 365.374 90.876 366.398 94.076C367.422 97.276 367.934 100.828 367.934 104.732C367.934 108.7 367.422 112.284 366.398 115.484C365.374 118.62 363.87 121.34 361.886 123.644C359.966 125.884 357.598 127.612 354.782 128.828C352.03 130.044 348.926 130.652 345.47 130.652ZM345.47 124.028C349.758 124.028 353.214 122.748 355.838 120.188C358.462 117.628 359.774 113.66 359.774 108.284V101.18C359.774 95.804 358.462 91.836 355.838 89.276C353.214 86.716 349.758 85.436 345.47 85.436C341.182 85.436 337.726 86.716 335.102 89.276C332.478 91.836 331.166 95.804 331.166 101.18V108.284C331.166 113.66 332.478 117.628 335.102 120.188C337.726 122.748 341.182 124.028 345.47 124.028ZM403.608 130.652C398.424 130.652 393.944 129.788 390.168 128.06C386.456 126.268 383.288 123.9 380.664 120.956L385.848 116.444C388.216 118.94 390.808 120.86 393.624 122.204C396.44 123.548 399.832 124.22 403.8 124.22C407.64 124.22 410.776 123.548 413.208 122.204C415.704 120.796 416.952 118.62 416.952 115.676C416.952 114.396 416.696 113.34 416.184 112.508C415.736 111.612 415.096 110.908 414.264 110.396C413.432 109.884 412.504 109.5 411.48 109.244C410.456 108.924 409.368 108.668 408.216 108.476L400.44 107.324C398.712 107.068 396.824 106.716 394.776 106.268C392.792 105.82 390.968 105.116 389.304 104.156C387.64 103.132 386.232 101.788 385.08 100.124C383.992 98.46 383.448 96.284 383.448 93.596C383.448 91.1 383.928 88.956 384.888 87.164C385.912 85.308 387.32 83.772 389.112 82.556C390.904 81.276 393.016 80.348 395.448 79.772C397.88 79.132 400.536 78.812 403.416 78.812C407.896 78.812 411.768 79.516 415.032 80.924C418.36 82.332 421.208 84.284 423.576 86.78L418.584 91.484C418.008 90.78 417.272 90.076 416.376 89.372C415.544 88.604 414.488 87.932 413.208 87.356C411.992 86.716 410.552 86.204 408.888 85.82C407.224 85.436 405.304 85.244 403.128 85.244C399.224 85.244 396.216 85.916 394.104 87.26C392.056 88.604 391.032 90.556 391.032 93.116C391.032 94.396 391.256 95.484 391.704 96.38C392.216 97.212 392.888 97.884 393.72 98.396C394.552 98.908 395.48 99.324 396.504 99.644C397.592 99.9 398.68 100.124 399.768 100.316L407.544 101.468C409.336 101.724 411.224 102.076 413.208 102.524C415.192 102.972 417.016 103.708 418.68 104.732C420.344 105.692 421.72 107.004 422.808 108.668C423.96 110.332 424.536 112.508 424.536 115.196C424.536 120.124 422.616 123.932 418.776 126.62C415 129.308 409.944 130.652 403.608 130.652ZM461.459 130.652C457.875 130.652 454.643 130.044 451.763 128.828C448.947 127.612 446.515 125.884 444.467 123.644C442.483 121.34 440.947 118.62 439.859 115.484C438.771 112.284 438.227 108.732 438.227 104.828C438.227 100.86 438.771 97.276 439.859 94.076C441.011 90.876 442.579 88.156 444.563 85.916C446.547 83.612 448.915 81.852 451.667 80.636C454.483 79.42 457.587 78.812 460.979 78.812C464.307 78.812 467.315 79.42 470.003 80.636C472.755 81.852 475.091 83.548 477.011 85.724C478.931 87.836 480.403 90.364 481.427 93.308C482.451 96.252 482.963 99.484 482.963 103.004V106.652H446.291V108.956C446.291 111.132 446.643 113.148 447.347 115.004C448.051 116.86 449.043 118.46 450.323 119.804C451.667 121.148 453.267 122.204 455.123 122.972C457.043 123.676 459.155 124.028 461.459 124.028C464.787 124.028 467.667 123.26 470.099 121.724C472.531 120.188 474.387 118.076 475.667 115.388L481.331 119.228C479.859 122.556 477.395 125.308 473.939 127.484C470.547 129.596 466.387 130.652 461.459 130.652ZM460.979 85.148C458.867 85.148 456.915 85.532 455.123 86.3C453.331 87.068 451.763 88.124 450.419 89.468C449.139 90.812 448.115 92.412 447.347 94.268C446.643 96.06 446.291 98.044 446.291 100.22V100.892H474.707V99.836C474.707 97.66 474.355 95.676 473.651 93.884C473.011 92.092 472.083 90.556 470.867 89.276C469.715 87.932 468.275 86.908 466.547 86.204C464.883 85.5 463.027 85.148 460.979 85.148ZM571.688 129.5V103.196L548.552 62.492H557.768L567.368 79.964L575.528 95.228H575.912L584.264 79.964L593.864 62.492H602.888L579.752 103.196V129.5H571.688ZM633.282 130.652C629.826 130.652 626.69 130.044 623.874 128.828C621.122 127.612 618.754 125.884 616.77 123.644C614.85 121.34 613.378 118.62 612.354 115.484C611.33 112.284 610.818 108.7 610.818 104.732C610.818 100.828 611.33 97.276 612.354 94.076C613.378 90.876 614.85 88.156 616.77 85.916C618.754 83.612 621.122 81.852 623.874 80.636C626.69 79.42 629.826 78.812 633.282 78.812C636.738 78.812 639.842 79.42 642.594 80.636C645.41 81.852 647.778 83.612 649.698 85.916C651.682 88.156 653.186 90.876 654.21 94.076C655.234 97.276 655.746 100.828 655.746 104.732C655.746 108.7 655.234 112.284 654.21 115.484C653.186 118.62 651.682 121.34 649.698 123.644C647.778 125.884 645.41 127.612 642.594 128.828C639.842 130.044 636.738 130.652 633.282 130.652ZM633.282 124.028C637.57 124.028 641.026 122.748 643.65 120.188C646.274 117.628 647.586 113.66 647.586 108.284V101.18C647.586 95.804 646.274 91.836 643.65 89.276C641.026 86.716 637.57 85.436 633.282 85.436C628.994 85.436 625.538 86.716 622.914 89.276C620.29 91.836 618.978 95.804 618.978 101.18V108.284C618.978 113.66 620.29 117.628 622.914 120.188C625.538 122.748 628.994 124.028 633.282 124.028ZM702.557 121.436H702.173C701.661 122.652 701.021 123.836 700.253 124.988C699.485 126.076 698.525 127.036 697.373 127.868C696.285 128.7 694.973 129.372 693.437 129.884C691.901 130.396 690.109 130.652 688.061 130.652C682.877 130.652 678.717 129.02 675.581 125.756C672.445 122.428 670.877 117.756 670.877 111.74V79.964H678.557V110.396C678.557 114.94 679.549 118.332 681.533 120.572C683.517 122.748 686.429 123.836 690.269 123.836C691.805 123.836 693.309 123.644 694.781 123.26C696.253 122.876 697.565 122.3 698.717 121.532C699.869 120.764 700.797 119.804 701.501 118.652C702.205 117.436 702.557 115.996 702.557 114.332V79.964H710.237V129.5H702.557V121.436ZM726.999 122.972H741.495V86.492H726.999V79.964H749.175V92.444H749.655C750.679 88.54 752.599 85.5 755.415 83.324C758.295 81.084 761.943 79.964 766.359 79.964H773.271V87.644H763.959C759.543 87.644 755.959 88.924 753.207 91.484C750.519 94.044 749.175 97.404 749.175 101.564V122.972H768.375V129.5H726.999V122.972ZM863.532 130.652C859.436 130.652 855.916 129.884 852.972 128.348C850.028 126.748 847.596 124.476 845.676 121.532C843.756 118.588 842.348 114.972 841.452 110.684C840.556 106.396 840.108 101.5 840.108 95.996C840.108 90.556 840.556 85.692 841.452 81.404C842.348 77.052 843.756 73.404 845.676 70.46C847.596 67.516 850.028 65.276 852.972 63.74C855.916 62.14 859.436 61.34 863.532 61.34C867.628 61.34 871.148 62.14 874.092 63.74C877.036 65.276 879.468 67.516 881.388 70.46C883.308 73.404 884.716 77.052 885.612 81.404C886.508 85.692 886.956 90.556 886.956 95.996C886.956 101.5 886.508 106.396 885.612 110.684C884.716 114.972 883.308 118.588 881.388 121.532C879.468 124.476 877.036 126.748 874.092 128.348C871.148 129.884 867.628 130.652 863.532 130.652ZM863.532 123.644C866.22 123.644 868.492 123.132 870.348 122.108C872.204 121.02 873.74 119.516 874.956 117.596C876.172 115.676 877.036 113.372 877.548 110.684C878.124 107.932 878.412 104.86 878.412 101.468V90.524C878.412 87.196 878.124 84.156 877.548 81.404C877.036 78.652 876.172 76.316 874.956 74.396C873.74 72.476 872.204 71.004 870.348 69.98C868.492 68.892 866.22 68.348 863.532 68.348C860.844 68.348 858.572 68.892 856.716 69.98C854.86 71.004 853.324 72.476 852.108 74.396C850.892 76.316 849.996 78.652 849.42 81.404C848.908 84.156 848.652 87.196 848.652 90.524V101.468C848.652 104.86 848.908 107.932 849.42 110.684C849.996 113.372 850.892 115.676 852.108 117.596C853.324 119.516 854.86 121.02 856.716 122.108C858.572 123.132 860.844 123.644 863.532 123.644ZM895.175 79.964H901.991L907.655 122.78H908.519L916.967 79.964H925.415L933.863 122.78H934.727L940.391 79.964H947.015L939.431 129.5H929.447L921.575 88.028H920.807L912.743 129.5H902.759L895.175 79.964ZM959.265 129.5V79.964H966.945V88.028H967.329C967.841 86.812 968.481 85.66 969.249 84.572C970.017 83.42 970.945 82.428 972.033 81.596C973.185 80.764 974.529 80.092 976.065 79.58C977.601 79.068 979.393 78.812 981.441 78.812C986.625 78.812 990.785 80.476 993.921 83.804C997.057 87.068 998.625 91.708 998.625 97.724V129.5H990.945V99.068C990.945 94.524 989.953 91.164 987.969 88.988C985.985 86.748 983.073 85.628 979.233 85.628C977.697 85.628 976.193 85.82 974.721 86.204C973.249 86.588 971.937 87.164 970.785 87.932C969.633 88.7 968.705 89.692 968.001 90.908C967.297 92.124 966.945 93.532 966.945 95.132V129.5H959.265ZM1111.16 129.5L1105.49 110.396H1081.97L1076.31 129.5H1067.96L1088.5 62.492H1099.16L1119.7 129.5H1111.16ZM1094.17 71.036H1093.3L1083.89 103.388H1103.57L1094.17 71.036ZM1163.34 121.436H1162.96C1159.76 127.58 1154.67 130.652 1147.7 130.652C1141.62 130.652 1136.85 128.38 1133.39 123.836C1130 119.292 1128.3 112.924 1128.3 104.732C1128.3 96.54 1130 90.172 1133.39 85.628C1136.85 81.084 1141.62 78.812 1147.7 78.812C1154.67 78.812 1159.76 81.884 1162.96 88.028H1163.34V58.46H1171.02V129.5H1163.34V121.436ZM1150.67 123.836C1152.4 123.836 1154.03 123.612 1155.57 123.164C1157.1 122.716 1158.45 122.076 1159.6 121.244C1160.75 120.348 1161.65 119.292 1162.29 118.076C1162.99 116.796 1163.34 115.324 1163.34 113.66V95.804C1163.34 94.14 1162.99 92.7 1162.29 91.484C1161.65 90.204 1160.75 89.148 1159.6 88.316C1158.45 87.42 1157.1 86.748 1155.57 86.3C1154.03 85.852 1152.4 85.628 1150.67 85.628C1146.19 85.628 1142.7 87.004 1140.21 89.756C1137.78 92.444 1136.56 96.028 1136.56 100.508V108.956C1136.56 113.436 1137.78 117.052 1140.21 119.804C1142.7 122.492 1146.19 123.836 1150.67 123.836ZM1204.01 129.5L1186.25 79.964H1194.03L1201.13 100.7L1208.81 123.068H1209.2L1216.88 100.7L1223.98 79.964H1231.56L1213.8 129.5H1204.01ZM1267.33 130.652C1263.75 130.652 1260.52 130.044 1257.64 128.828C1254.82 127.612 1252.39 125.884 1250.34 123.644C1248.36 121.34 1246.82 118.62 1245.73 115.484C1244.65 112.284 1244.1 108.732 1244.1 104.828C1244.1 100.86 1244.65 97.276 1245.73 94.076C1246.89 90.876 1248.45 88.156 1250.44 85.916C1252.42 83.612 1254.79 81.852 1257.54 80.636C1260.36 79.42 1263.46 78.812 1266.85 78.812C1270.18 78.812 1273.19 79.42 1275.88 80.636C1278.63 81.852 1280.97 83.548 1282.89 85.724C1284.81 87.836 1286.28 90.364 1287.3 93.308C1288.33 96.252 1288.84 99.484 1288.84 103.004V106.652H1252.17V108.956C1252.17 111.132 1252.52 113.148 1253.22 115.004C1253.93 116.86 1254.92 118.46 1256.2 119.804C1257.54 121.148 1259.14 122.204 1261 122.972C1262.92 123.676 1265.03 124.028 1267.33 124.028C1270.66 124.028 1273.54 123.26 1275.97 121.724C1278.41 120.188 1280.26 118.076 1281.54 115.388L1287.21 119.228C1285.73 122.556 1283.27 125.308 1279.81 127.484C1276.42 129.596 1272.26 130.652 1267.33 130.652ZM1266.85 85.148C1264.74 85.148 1262.79 85.532 1261 86.3C1259.21 87.068 1257.64 88.124 1256.29 89.468C1255.01 90.812 1253.99 92.412 1253.22 94.268C1252.52 96.06 1252.17 98.044 1252.17 100.22V100.892H1280.58V99.836C1280.58 97.66 1280.23 95.676 1279.53 93.884C1278.89 92.092 1277.96 90.556 1276.74 89.276C1275.59 87.932 1274.15 86.908 1272.42 86.204C1270.76 85.5 1268.9 85.148 1266.85 85.148ZM1304.64 129.5V79.964H1312.32V88.028H1312.7C1313.22 86.812 1313.86 85.66 1314.62 84.572C1315.39 83.42 1316.32 82.428 1317.41 81.596C1318.56 80.764 1319.9 80.092 1321.44 79.58C1322.98 79.068 1324.77 78.812 1326.82 78.812C1332 78.812 1336.16 80.476 1339.3 83.804C1342.43 87.068 1344 91.708 1344 97.724V129.5H1336.32V99.068C1336.32 94.524 1335.33 91.164 1333.34 88.988C1331.36 86.748 1328.45 85.628 1324.61 85.628C1323.07 85.628 1321.57 85.82 1320.1 86.204C1318.62 86.588 1317.31 87.164 1316.16 87.932C1315.01 88.7 1314.08 89.692 1313.38 90.908C1312.67 92.124 1312.32 93.532 1312.32 95.132V129.5H1304.64ZM1383.99 129.5C1380.22 129.5 1377.43 128.444 1375.64 126.332C1373.91 124.22 1373.05 121.5 1373.05 118.172V86.492H1356.54V79.964H1368.83C1370.49 79.964 1371.64 79.644 1372.28 79.004C1372.99 78.3 1373.34 77.116 1373.34 75.452V62.492H1380.73V79.964H1403.29V86.492H1380.73V122.972H1403.29V129.5H1383.99ZM1450.87 121.436H1450.49C1449.97 122.652 1449.33 123.836 1448.57 124.988C1447.8 126.076 1446.84 127.036 1445.69 127.868C1444.6 128.7 1443.29 129.372 1441.75 129.884C1440.21 130.396 1438.42 130.652 1436.37 130.652C1431.19 130.652 1427.03 129.02 1423.89 125.756C1420.76 122.428 1419.19 117.756 1419.19 111.74V79.964H1426.87V110.396C1426.87 114.94 1427.86 118.332 1429.85 120.572C1431.83 122.748 1434.74 123.836 1438.58 123.836C1440.12 123.836 1441.62 123.644 1443.09 123.26C1444.57 122.876 1445.88 122.3 1447.03 121.532C1448.18 120.764 1449.11 119.804 1449.81 118.652C1450.52 117.436 1450.87 115.996 1450.87 114.332V79.964H1458.55V129.5H1450.87V121.436ZM1475.31 122.972H1489.81V86.492H1475.31V79.964H1497.49V92.444H1497.97C1498.99 88.54 1500.91 85.5 1503.73 83.324C1506.61 81.084 1510.26 79.964 1514.67 79.964H1521.58V87.644H1512.27C1507.86 87.644 1504.27 88.924 1501.52 91.484C1498.83 94.044 1497.49 97.404 1497.49 101.564V122.972H1516.69V129.5H1475.31V122.972ZM1555.15 130.652C1551.56 130.652 1548.33 130.044 1545.45 128.828C1542.63 127.612 1540.2 125.884 1538.15 123.644C1536.17 121.34 1534.63 118.62 1533.55 115.484C1532.46 112.284 1531.91 108.732 1531.91 104.828C1531.91 100.86 1532.46 97.276 1533.55 94.076C1534.7 90.876 1536.27 88.156 1538.25 85.916C1540.23 83.612 1542.6 81.852 1545.35 80.636C1548.17 79.42 1551.27 78.812 1554.67 78.812C1557.99 78.812 1561 79.42 1563.69 80.636C1566.44 81.852 1568.78 83.548 1570.7 85.724C1572.62 87.836 1574.09 90.364 1575.11 93.308C1576.14 96.252 1576.65 99.484 1576.65 103.004V106.652H1539.98V108.956C1539.98 111.132 1540.33 113.148 1541.03 115.004C1541.74 116.86 1542.73 118.46 1544.01 119.804C1545.35 121.148 1546.95 122.204 1548.81 122.972C1550.73 123.676 1552.84 124.028 1555.15 124.028C1558.47 124.028 1561.35 123.26 1563.79 121.724C1566.22 120.188 1568.07 118.076 1569.35 115.388L1575.02 119.228C1573.55 122.556 1571.08 125.308 1567.63 127.484C1564.23 129.596 1560.07 130.652 1555.15 130.652ZM1554.67 85.148C1552.55 85.148 1550.6 85.532 1548.81 86.3C1547.02 87.068 1545.45 88.124 1544.11 89.468C1542.83 90.812 1541.8 92.412 1541.03 94.268C1540.33 96.06 1539.98 98.044 1539.98 100.22V100.892H1568.39V99.836C1568.39 97.66 1568.04 95.676 1567.34 93.884C1566.7 92.092 1565.77 90.556 1564.55 89.276C1563.4 87.932 1561.96 86.908 1560.23 86.204C1558.57 85.5 1556.71 85.148 1554.67 85.148Z" fill="black"/>
<path d="M718.028 249.415V246.601H725.336V222.913H718.028V220.099H736.172V222.913H728.864V246.601H736.172V249.415H718.028ZM743.8 249.415V227.743H747.16V231.271H747.328C747.552 230.739 747.832 230.235 748.168 229.759C748.504 229.255 748.91 228.821 749.386 228.457C749.89 228.093 750.478 227.799 751.15 227.575C751.822 227.351 752.606 227.239 753.502 227.239C755.77 227.239 757.59 227.967 758.962 229.423C760.334 230.851 761.02 232.881 761.02 235.513V249.415H757.66V236.101C757.66 234.113 757.226 232.643 756.358 231.691C755.49 230.711 754.216 230.221 752.536 230.221C751.864 230.221 751.206 230.305 750.562 230.473C749.918 230.641 749.344 230.893 748.84 231.229C748.336 231.565 747.93 231.999 747.622 232.531C747.314 233.063 747.16 233.679 747.16 234.379V249.415H743.8ZM794.041 227.743H797.401V231.271H797.569C798.969 228.583 801.195 227.239 804.247 227.239C806.907 227.239 808.979 228.233 810.463 230.221C811.975 232.209 812.731 234.995 812.731 238.579C812.731 242.163 811.975 244.949 810.463 246.937C808.979 248.925 806.907 249.919 804.247 249.919C801.195 249.919 798.969 248.575 797.569 245.887H797.401V257.815H794.041V227.743ZM802.945 246.937C804.905 246.937 806.417 246.349 807.481 245.173C808.573 243.969 809.119 242.387 809.119 240.427V236.731C809.119 234.771 808.573 233.203 807.481 232.027C806.417 230.823 804.905 230.221 802.945 230.221C802.189 230.221 801.475 230.319 800.803 230.515C800.131 230.711 799.543 231.005 799.039 231.397C798.535 231.761 798.129 232.223 797.821 232.783C797.541 233.315 797.401 233.945 797.401 234.673V242.485C797.401 243.213 797.541 243.857 797.821 244.417C798.129 244.949 798.535 245.411 799.039 245.803C799.543 246.167 800.131 246.447 800.803 246.643C801.475 246.839 802.189 246.937 802.945 246.937ZM818.468 246.559H824.81V230.599H818.468V227.743H828.17V233.203H828.38C828.828 231.495 829.668 230.165 830.9 229.213C832.16 228.233 833.756 227.743 835.688 227.743H838.712V231.103H834.638C832.706 231.103 831.138 231.663 829.934 232.783C828.758 233.903 828.17 235.373 828.17 237.193V246.559H836.57V249.415H818.468V246.559ZM853.018 249.919C851.506 249.919 850.134 249.653 848.902 249.121C847.698 248.589 846.662 247.833 845.794 246.853C844.954 245.845 844.31 244.655 843.862 243.283C843.414 241.883 843.19 240.315 843.19 238.579C843.19 236.871 843.414 235.317 843.862 233.917C844.31 232.517 844.954 231.327 845.794 230.347C846.662 229.339 847.698 228.569 848.902 228.037C850.134 227.505 851.506 227.239 853.018 227.239C854.53 227.239 855.888 227.505 857.092 228.037C858.324 228.569 859.36 229.339 860.2 230.347C861.068 231.327 861.726 232.517 862.174 233.917C862.622 235.317 862.846 236.871 862.846 238.579C862.846 240.315 862.622 241.883 862.174 243.283C861.726 244.655 861.068 245.845 860.2 246.853C859.36 247.833 858.324 248.589 857.092 249.121C855.888 249.653 854.53 249.919 853.018 249.919ZM853.018 247.021C854.894 247.021 856.406 246.461 857.554 245.341C858.702 244.221 859.276 242.485 859.276 240.133V237.025C859.276 234.673 858.702 232.937 857.554 231.817C856.406 230.697 854.894 230.137 853.018 230.137C851.142 230.137 849.63 230.697 848.482 231.817C847.334 232.937 846.76 234.673 846.76 237.025V240.133C846.76 242.485 847.334 244.221 848.482 245.341C849.63 246.461 851.142 247.021 853.018 247.021ZM889.164 251.893C889.164 254.077 888.254 255.687 886.434 256.723C884.614 257.787 881.884 258.319 878.244 258.319C874.744 258.319 872.224 257.857 870.684 256.933C869.172 256.009 868.416 254.679 868.416 252.943C868.416 251.767 868.724 250.857 869.34 250.213C869.956 249.569 870.824 249.093 871.944 248.785V248.281C871.328 247.973 870.852 247.581 870.516 247.105C870.18 246.629 870.012 246.027 870.012 245.299C870.012 244.179 870.376 243.339 871.104 242.779C871.86 242.219 872.798 241.799 873.918 241.519V241.351C872.574 240.763 871.524 239.895 870.768 238.747C870.04 237.599 869.676 236.255 869.676 234.715C869.676 233.623 869.872 232.615 870.264 231.691C870.656 230.767 871.216 229.983 871.944 229.339C872.7 228.667 873.596 228.149 874.632 227.785C875.668 227.421 876.816 227.239 878.076 227.239C879.7 227.239 881.128 227.533 882.36 228.121V227.743C882.36 226.903 882.556 226.203 882.948 225.643C883.34 225.083 884.012 224.803 884.964 224.803H888.954V227.743H884.082V229.213C884.866 229.885 885.468 230.683 885.888 231.607C886.308 232.531 886.518 233.567 886.518 234.715C886.518 235.807 886.308 236.815 885.888 237.739C885.496 238.663 884.936 239.461 884.208 240.133C883.48 240.777 882.584 241.281 881.52 241.645C880.484 242.009 879.336 242.191 878.076 242.191C877.712 242.191 877.362 242.177 877.026 242.149C876.69 242.121 876.354 242.079 876.018 242.023C875.682 242.079 875.332 242.177 874.968 242.317C874.604 242.429 874.268 242.597 873.96 242.821C873.652 243.017 873.4 243.255 873.204 243.535C873.008 243.815 872.91 244.137 872.91 244.501C872.91 245.145 873.232 245.579 873.876 245.803C874.52 245.999 875.36 246.097 876.396 246.097H881.184C883.984 246.097 886.014 246.629 887.274 247.693C888.534 248.729 889.164 250.129 889.164 251.893ZM886.014 252.061C886.014 251.193 885.664 250.493 884.964 249.961C884.264 249.457 883.046 249.205 881.31 249.205H873.792C872.336 249.793 871.608 250.773 871.608 252.145C871.608 253.097 871.986 253.909 872.742 254.581C873.498 255.281 874.758 255.631 876.522 255.631H879.798C881.758 255.631 883.284 255.323 884.376 254.707C885.468 254.119 886.014 253.237 886.014 252.061ZM878.076 239.587C879.756 239.587 880.988 239.195 881.772 238.411C882.584 237.627 882.99 236.591 882.99 235.303V234.085C882.99 232.797 882.584 231.775 881.772 231.019C880.988 230.235 879.756 229.843 878.076 229.843C876.396 229.843 875.164 230.235 874.38 231.019C873.596 231.775 873.204 232.797 873.204 234.085V235.303C873.204 236.591 873.596 237.627 874.38 238.411C875.164 239.195 876.396 239.587 878.076 239.587ZM894.019 246.559H900.361V230.599H894.019V227.743H903.721V233.203H903.931C904.379 231.495 905.219 230.165 906.451 229.213C907.711 228.233 909.307 227.743 911.239 227.743H914.263V231.103H910.189C908.257 231.103 906.689 231.663 905.485 232.783C904.309 233.903 903.721 235.373 903.721 237.193V246.559H912.121V249.415H894.019V246.559ZM928.947 249.919C927.379 249.919 925.965 249.653 924.705 249.121C923.473 248.589 922.409 247.833 921.513 246.853C920.645 245.845 919.973 244.655 919.497 243.283C919.021 241.883 918.783 240.329 918.783 238.621C918.783 236.885 919.021 235.317 919.497 233.917C920.001 232.517 920.687 231.327 921.555 230.347C922.423 229.339 923.459 228.569 924.663 228.037C925.895 227.505 927.253 227.239 928.737 227.239C930.193 227.239 931.509 227.505 932.685 228.037C933.889 228.569 934.911 229.311 935.751 230.263C936.591 231.187 937.235 232.293 937.683 233.581C938.131 234.869 938.355 236.283 938.355 237.823V239.419H922.311V240.427C922.311 241.379 922.465 242.261 922.773 243.073C923.081 243.885 923.515 244.585 924.075 245.173C924.663 245.761 925.363 246.223 926.175 246.559C927.015 246.867 927.939 247.021 928.947 247.021C930.403 247.021 931.663 246.685 932.727 246.013C933.791 245.341 934.603 244.417 935.163 243.241L937.641 244.921C936.997 246.377 935.919 247.581 934.407 248.533C932.923 249.457 931.103 249.919 928.947 249.919ZM928.737 230.011C927.813 230.011 926.959 230.179 926.175 230.515C925.391 230.851 924.705 231.313 924.117 231.901C923.557 232.489 923.109 233.189 922.773 234.001C922.465 234.785 922.311 235.653 922.311 236.605V236.899H934.743V236.437C934.743 235.485 934.589 234.617 934.281 233.833C934.001 233.049 933.595 232.377 933.063 231.817C932.559 231.229 931.929 230.781 931.173 230.473C930.445 230.165 929.633 230.011 928.737 230.011ZM954.004 249.919C951.736 249.919 949.776 249.541 948.124 248.785C946.5 248.001 945.114 246.965 943.966 245.677L946.234 243.703C947.27 244.795 948.404 245.635 949.636 246.223C950.868 246.811 952.352 247.105 954.088 247.105C955.768 247.105 957.14 246.811 958.204 246.223C959.296 245.607 959.842 244.655 959.842 243.367C959.842 242.807 959.73 242.345 959.506 241.981C959.31 241.589 959.03 241.281 958.666 241.057C958.302 240.833 957.896 240.665 957.448 240.553C957 240.413 956.524 240.301 956.02 240.217L952.618 239.713C951.862 239.601 951.036 239.447 950.14 239.251C949.272 239.055 948.474 238.747 947.746 238.327C947.018 237.879 946.402 237.291 945.898 236.563C945.422 235.835 945.184 234.883 945.184 233.707C945.184 232.615 945.394 231.677 945.814 230.893C946.262 230.081 946.878 229.409 947.662 228.877C948.446 228.317 949.37 227.911 950.434 227.659C951.498 227.379 952.66 227.239 953.92 227.239C955.88 227.239 957.574 227.547 959.002 228.163C960.458 228.779 961.704 229.633 962.74 230.725L960.556 232.783C960.304 232.475 959.982 232.167 959.59 231.859C959.226 231.523 958.764 231.229 958.204 230.977C957.672 230.697 957.042 230.473 956.314 230.305C955.586 230.137 954.746 230.053 953.794 230.053C952.086 230.053 950.77 230.347 949.846 230.935C948.95 231.523 948.502 232.377 948.502 233.497C948.502 234.057 948.6 234.533 948.796 234.925C949.02 235.289 949.314 235.583 949.678 235.807C950.042 236.031 950.448 236.213 950.896 236.353C951.372 236.465 951.848 236.563 952.324 236.647L955.726 237.151C956.51 237.263 957.336 237.417 958.204 237.613C959.072 237.809 959.87 238.131 960.598 238.579C961.326 238.999 961.928 239.573 962.404 240.301C962.908 241.029 963.16 241.981 963.16 243.157C963.16 245.313 962.32 246.979 960.64 248.155C958.988 249.331 956.776 249.919 954.004 249.919ZM979.188 249.919C976.92 249.919 974.96 249.541 973.308 248.785C971.684 248.001 970.298 246.965 969.15 245.677L971.418 243.703C972.454 244.795 973.588 245.635 974.82 246.223C976.052 246.811 977.536 247.105 979.272 247.105C980.952 247.105 982.324 246.811 983.388 246.223C984.48 245.607 985.026 244.655 985.026 243.367C985.026 242.807 984.914 242.345 984.69 241.981C984.494 241.589 984.214 241.281 983.85 241.057C983.486 240.833 983.08 240.665 982.632 240.553C982.184 240.413 981.708 240.301 981.204 240.217L977.802 239.713C977.046 239.601 976.22 239.447 975.324 239.251C974.456 239.055 973.658 238.747 972.93 238.327C972.202 237.879 971.586 237.291 971.082 236.563C970.606 235.835 970.368 234.883 970.368 233.707C970.368 232.615 970.578 231.677 970.998 230.893C971.446 230.081 972.062 229.409 972.846 228.877C973.63 228.317 974.554 227.911 975.618 227.659C976.682 227.379 977.844 227.239 979.104 227.239C981.064 227.239 982.758 227.547 984.186 228.163C985.642 228.779 986.888 229.633 987.924 230.725L985.74 232.783C985.488 232.475 985.166 232.167 984.774 231.859C984.41 231.523 983.948 231.229 983.388 230.977C982.856 230.697 982.226 230.473 981.498 230.305C980.77 230.137 979.93 230.053 978.978 230.053C977.27 230.053 975.954 230.347 975.03 230.935C974.134 231.523 973.686 232.377 973.686 233.497C973.686 234.057 973.784 234.533 973.98 234.925C974.204 235.289 974.498 235.583 974.862 235.807C975.226 236.031 975.632 236.213 976.08 236.353C976.556 236.465 977.032 236.563 977.508 236.647L980.91 237.151C981.694 237.263 982.52 237.417 983.388 237.613C984.256 237.809 985.054 238.131 985.782 238.579C986.51 238.999 987.112 239.573 987.588 240.301C988.092 241.029 988.344 241.981 988.344 243.157C988.344 245.313 987.504 246.979 985.824 248.155C984.172 249.331 981.96 249.919 979.188 249.919Z" fill="#1400FF"/>
<rect x="11.5" y="11.5" width="1684" height="288" stroke="black" stroke-width="23"/>
</svg>
