<svg width="48" height="48" viewBox="0 0 48 48" fill="none" xmlns="http://www.w3.org/2000/svg">
<rect x="0.0429688" y="0.400024" width="47.6" height="47.6" fill="black"/>
<path fill-rule="evenodd" clip-rule="evenodd" d="M22.8721 8.36658H28.9254C32.1975 8.36658 34.8501 11.0191 34.8501 14.2912C34.8501 17.5634 32.1975 20.2159 28.9254 20.2159H22.8721V8.36658ZM24.8128 10.3073V18.2752H28.9254C31.1257 18.2752 32.9094 16.4915 32.9094 14.2912C32.9094 12.091 31.1257 10.3073 28.9254 10.3073H24.8128Z" fill="white"/>
<path fill-rule="evenodd" clip-rule="evenodd" d="M12.835 14.2912C12.835 11.0191 15.4875 8.36658 18.7596 8.36658H24.813V20.2159H18.7596C15.4875 20.2159 12.835 17.5634 12.835 14.2912ZM18.7596 10.3073C16.5593 10.3073 14.7756 12.091 14.7756 14.2912C14.7756 16.4915 16.5593 18.2752 18.7596 18.2752H22.8723V10.3073H18.7596Z" fill="white"/>
<path fill-rule="evenodd" clip-rule="evenodd" d="M12.835 24.2001C12.835 20.9279 15.4875 18.2754 18.7596 18.2754H24.813V30.1247H18.7596C15.4875 30.1247 12.835 27.4722 12.835 24.2001ZM18.7596 20.2161C16.5593 20.2161 14.7756 21.9998 14.7756 24.2001C14.7756 26.4004 16.5593 28.184 18.7596 28.184H22.8723V20.2161H18.7596Z" fill="white"/>
<path fill-rule="evenodd" clip-rule="evenodd" d="M12.835 34.1086C12.835 30.8365 15.4875 28.184 18.7596 28.184H24.813V34.0443C24.813 37.36 22.0911 40.0333 18.7916 40.0333C15.5276 40.0333 12.835 37.3888 12.835 34.1086ZM18.7596 30.1246C16.5593 30.1246 14.7756 31.9083 14.7756 34.1086C14.7756 36.3008 16.5832 38.0926 18.7916 38.0926C21.0356 38.0926 22.8723 36.272 22.8723 34.0443V30.1246H18.7596Z" fill="white"/>
<path fill-rule="evenodd" clip-rule="evenodd" d="M22.8721 24.2001C22.8721 20.9279 25.5246 18.2754 28.7967 18.2754H28.9254C32.1975 18.2754 34.8501 20.9279 34.8501 24.2001C34.8501 27.4722 32.1975 30.1247 28.9254 30.1247H28.7967C25.5246 30.1247 22.8721 27.4722 22.8721 24.2001ZM28.7967 20.2161C26.5964 20.2161 24.8128 21.9998 24.8128 24.2001C24.8128 26.4004 26.5964 28.184 28.7967 28.184H28.9254C31.1257 28.184 32.9094 26.4004 32.9094 24.2001C32.9094 21.9998 31.1257 20.2161 28.9254 20.2161H28.7967Z" fill="white"/>
</svg>
