<svg width="49" height="49" viewBox="0 0 49 49" fill="none" xmlns="http://www.w3.org/2000/svg">
<path d="M0.933594 0.470657H48.5314V48.0685H0.933594V0.470657Z" fill="black"/>
<path d="M18.6395 29.0317H23.4252V31.6076H9.47471V29.0317H14.8299V19.5144H10.8982V16.9386H18.6395V29.0317ZM14.8299 14.2949V11.4885H18.6395V14.2949H14.8299Z" fill="white"/>
<path d="M35.7217 31.6076V23.2156C35.7217 21.9412 35.5455 21.0058 35.193 20.4092C34.8495 19.8127 34.253 19.5144 33.4034 19.5144C32.4634 19.5144 31.7087 19.9166 31.1393 20.721C30.579 21.5164 30.2988 22.5242 30.2988 23.7443V31.6076H26.4892V20.2194C26.4892 19.4331 26.4756 18.7914 26.4485 18.2943C26.4304 17.7881 26.4078 17.3362 26.3807 16.9386H30.0141C30.0412 17.1103 30.0773 17.5712 30.1225 18.3214C30.1677 19.0625 30.1903 19.5732 30.1903 19.8534H30.2445C30.7597 18.7326 31.406 17.9192 32.1832 17.4131C32.9605 16.9069 33.8869 16.6538 34.9625 16.6538C37.9993 16.6538 39.5178 18.5338 39.5178 22.2937V31.6076H35.7217Z" fill="white"/>
</svg>
