<svg width="552" height="552" viewBox="0 0 552 552" fill="none" xmlns="http://www.w3.org/2000/svg">
<rect x="0.51416" y="1.05649" width="550.493" height="550.493" fill="white"/>
<path d="M246.144 449.806C259.441 481.909 266.316 516.305 266.381 551.049H1.01417L1.01416 285.682C35.7584 285.748 70.1547 292.623 102.257 305.92C134.514 319.281 163.823 338.865 188.511 363.553C213.199 388.241 232.783 417.55 246.144 449.806ZM266.381 0.657166C266.316 35.4014 259.441 69.7977 246.144 101.9C232.783 134.157 213.199 163.466 188.511 188.154C163.823 212.842 134.514 232.426 102.257 245.787C70.1547 259.084 35.7584 265.959 1.01416 266.024L1.01417 0.657166H266.381ZM285.866 551.049C285.931 516.305 292.806 481.909 306.104 449.806C319.465 417.55 339.048 388.241 363.736 363.553C388.424 338.865 417.733 319.281 449.99 305.92C482.093 292.623 516.489 285.748 551.233 285.682L551.233 551.049H285.866ZM306.104 101.9C292.806 69.7977 285.931 35.4014 285.866 0.657166H551.233L551.233 266.024C516.489 265.959 482.093 259.084 449.99 245.787C417.733 232.426 388.424 212.842 363.736 188.154C339.048 163.466 319.465 134.157 306.104 101.9Z" fill="black" stroke="white"/>
</svg>
