<svg width="1708" height="311" viewBox="0 0 1708 311" fill="none" xmlns="http://www.w3.org/2000/svg">
<g clip-path="url(#clip0_827_2278)">
<rect width="1707" height="311" transform="translate(0.283203)" fill="url(#paint0_linear_827_2278)"/>
<g opacity="0.6">
<path d="M538.911 139.193C798.643 12.2468 809.574 78.8533 782.573 128.025C677.591 291.987 551.168 571.711 826.741 312.759C1102.31 53.8082 1099.9 89.1522 1064.24 139.193C899.532 325.541 1000.79 393.02 1079.33 411.734" stroke="url(#paint1_linear_827_2278)" stroke-width="25"/>
<path d="M653.355 -16.4629C631.609 -36.6199 606.03 -52.2152 578.079 -62.3584C550.129 -72.5016 520.353 -76.9941 490.453 -75.5793C460.554 -74.1645 431.115 -66.8701 403.818 -54.1127C376.521 -41.3553 351.9 -23.3846 331.362 -1.22679C310.824 20.931 294.77 46.8421 284.117 75.0271C273.464 103.212 268.42 133.119 269.275 163.04C270.129 192.961 276.864 222.31 289.095 249.413C301.327 276.515 318.815 300.839 340.561 320.996L421.163 234.038C410.624 224.27 402.148 212.481 396.221 199.347C390.293 186.212 387.029 171.988 386.615 157.488C386.201 142.987 388.645 128.493 393.808 114.834C398.971 101.174 406.751 88.6167 416.705 77.8783C426.658 67.1398 438.59 58.4306 451.819 52.248C465.048 46.0653 479.315 42.5302 493.806 41.8445C508.296 41.1589 522.726 43.3361 536.272 48.2518C549.818 53.1676 562.215 60.7256 572.754 70.4944L653.355 -16.4629Z" fill="url(#paint2_linear_827_2278)"/>
<g style="mix-blend-mode:overlay">
<path d="M683.546 -1.22655C661.799 -21.3836 636.221 -36.9789 608.27 -47.1221C580.319 -57.2653 550.544 -61.7578 520.644 -60.343C490.744 -58.9282 461.305 -51.6338 434.008 -38.8764C406.711 -26.119 382.091 -8.14831 361.552 14.0095C341.014 36.1674 324.96 62.0785 314.307 90.2634C303.654 118.448 298.611 148.355 299.465 178.276C300.319 208.197 307.054 237.547 319.286 264.649C331.517 291.751 349.005 316.075 370.752 336.232L451.353 249.275C440.814 239.506 432.339 227.718 426.411 214.583C420.483 201.448 417.219 187.225 416.805 172.724C416.391 158.223 418.836 143.729 423.998 130.07C429.161 116.41 436.941 103.853 446.895 93.1146C456.849 82.3762 468.781 73.667 482.01 67.4843C495.239 61.3016 509.506 57.7665 523.996 57.0809C538.487 56.3952 552.917 58.5724 566.463 63.4881C580.009 68.4039 592.405 75.9619 602.944 85.7307L683.546 -1.22655Z" fill="#FCFF81"/>
</g>
<g style="mix-blend-mode:overlay">
<path d="M575.411 153.839C835.143 26.8928 846.074 93.4993 819.073 142.671C714.091 306.633 573.022 569.821 848.595 310.869C1124.17 51.9181 1121.75 87.2622 1086.1 137.303C921.386 323.651 1037.29 407.666 1115.83 426.38" stroke="white" stroke-width="25"/>
</g>
<line x1="993.822" y1="2.06677" x2="1359.57" y2="-160.789" stroke="white" stroke-width="4.00367"/>
<line x1="1019.88" y1="60.5863" x2="1385.63" y2="-102.269" stroke="white" stroke-width="4.00367"/>
<line x1="1006.85" y1="31.3265" x2="1372.6" y2="-131.529" stroke="white" stroke-width="4.00367"/>
<line x1="1033.35" y1="90.8422" x2="1399.1" y2="-72.0135" stroke="white" stroke-width="4.00367"/>
<line x1="1059.41" y1="149.362" x2="1425.16" y2="-13.4939" stroke="white" stroke-width="4.00367"/>
<line x1="1046.38" y1="120.102" x2="1412.13" y2="-42.7537" stroke="white" stroke-width="4.00367"/>
<line x1="1071.98" y1="177.587" x2="1437.72" y2="14.7317" stroke="white" stroke-width="4.00367"/>
<line x1="1098.03" y1="236.107" x2="1463.78" y2="73.2512" stroke="white" stroke-width="4.00367"/>
<line x1="1085" y1="206.847" x2="1450.75" y2="43.9914" stroke="white" stroke-width="4.00367"/>
<line x1="1111.5" y1="266.363" x2="1477.25" y2="103.507" stroke="white" stroke-width="4.00367"/>
<line x1="1137.56" y1="324.882" x2="1503.31" y2="162.027" stroke="white" stroke-width="4.00367"/>
<line x1="1124.53" y1="295.622" x2="1490.28" y2="132.767" stroke="white" stroke-width="4.00367"/>
<line x1="1162.18" y1="330.362" x2="999.324" y2="-35.3859" stroke="white" stroke-width="4.00367"/>
<line x1="1220.7" y1="304.305" x2="1057.84" y2="-61.4431" stroke="white" stroke-width="4.00367"/>
<line x1="1191.44" y1="317.334" x2="1028.58" y2="-48.4142" stroke="white" stroke-width="4.00367"/>
<line x1="1250.96" y1="290.833" x2="1088.1" y2="-74.9147" stroke="white" stroke-width="4.00367"/>
<line x1="1309.47" y1="264.776" x2="1146.62" y2="-100.972" stroke="white" stroke-width="4.00367"/>
<line x1="1280.22" y1="277.805" x2="1117.36" y2="-87.9431" stroke="white" stroke-width="4.00367"/>
<line x1="1339.75" y1="251.296" x2="1176.89" y2="-114.452" stroke="white" stroke-width="4.00367"/>
<line x1="1398.27" y1="225.239" x2="1235.41" y2="-140.509" stroke="white" stroke-width="4.00367"/>
<line x1="1369.01" y1="238.268" x2="1206.15" y2="-127.48" stroke="white" stroke-width="4.00367"/>
<line x1="1428.52" y1="211.767" x2="1265.67" y2="-153.981" stroke="white" stroke-width="4.00367"/>
<line x1="1487.04" y1="185.71" x2="1324.19" y2="-180.038" stroke="white" stroke-width="4.00367"/>
<line x1="1457.78" y1="198.739" x2="1294.93" y2="-167.009" stroke="white" stroke-width="4.00367"/>
<circle cx="849.142" cy="155.508" r="92.9224" fill="black"/>
<path d="M834.284 179.061C833.391 180.12 832.663 180.798 832.101 181.096C831.571 181.394 830.91 181.543 830.116 181.543C828.561 181.543 827.304 181.03 826.344 180.004C825.418 178.946 824.955 177.209 824.955 174.794V167.945C824.955 165.497 825.418 163.76 826.344 162.735C827.304 161.676 828.561 161.146 830.116 161.146C831.307 161.146 832.299 161.461 833.093 162.089C833.92 162.718 834.549 163.777 834.979 165.265C835.409 166.721 835.856 167.714 836.319 168.243C837.278 169.269 838.982 170.311 841.43 171.369C843.879 172.428 846.558 172.957 849.47 172.957C854.002 172.957 857.724 171.899 860.636 169.781C862.488 168.491 863.415 166.903 863.415 165.017C863.415 163.76 862.968 162.586 862.075 161.494C861.181 160.369 859.726 159.443 857.708 158.715C856.384 158.219 853.423 157.54 848.825 156.68C843.267 155.655 839.065 154.414 836.22 152.958C833.374 151.503 831.125 149.451 829.471 146.805C827.816 144.158 826.989 141.296 826.989 138.219C826.989 133.356 829.024 129.105 833.093 125.465C837.163 121.793 842.456 119.957 848.973 119.957C851.587 119.957 854.002 120.255 856.219 120.85C858.469 121.413 860.503 122.289 862.323 123.48C863.646 122.19 864.97 121.545 866.293 121.545C867.782 121.545 868.989 122.074 869.916 123.133C870.875 124.159 871.355 125.879 871.355 128.294V135.937C871.355 138.385 870.875 140.138 869.916 141.197C868.989 142.222 867.782 142.735 866.293 142.735C865.036 142.735 863.944 142.355 863.018 141.594C862.29 141.031 861.744 139.907 861.38 138.219C861.016 136.532 860.553 135.324 859.99 134.597C859.031 133.339 857.592 132.281 855.673 131.421C853.754 130.56 851.537 130.13 849.023 130.13C845.351 130.13 842.439 130.99 840.289 132.711C838.172 134.398 837.113 136.168 837.113 138.021C837.113 139.278 837.543 140.502 838.403 141.693C839.296 142.851 840.587 143.761 842.274 144.423C843.399 144.886 846.558 145.63 851.753 146.656C856.98 147.681 860.983 148.806 863.762 150.03C866.574 151.254 868.907 153.173 870.759 155.787C872.612 158.401 873.538 161.51 873.538 165.117C873.538 170.145 871.768 174.165 868.228 177.176C863.53 181.146 857.542 183.131 850.264 183.131C847.452 183.131 844.706 182.783 842.026 182.089C839.379 181.427 836.799 180.418 834.284 179.061Z" fill="white"/>
<path d="M926.578 155.508C926.578 198.274 891.909 232.943 849.142 232.943C806.376 232.943 771.707 198.274 771.707 155.508C771.707 112.741 806.376 78.0723 849.142 78.0723C891.909 78.0723 926.578 112.741 926.578 155.508ZM782.175 155.508C782.175 192.493 812.157 222.475 849.142 222.475C886.127 222.475 916.11 192.493 916.11 155.508C916.11 118.522 886.127 88.5401 849.142 88.5401C812.157 88.5401 782.175 118.522 782.175 155.508Z" fill="white"/>
</g>
<rect x="41.8374" y="38.1553" width="1630.86" height="234.993" stroke="white" stroke-width="10"/>
<g style="mix-blend-mode:overlay">
<rect x="-80.1846" y="-17.0127" width="2023.02" height="478.78" fill="#1149B7"/>
<rect x="-80.1846" y="-17.0127" width="2023.02" height="478.78" stroke="black" stroke-width="4"/>
</g>
</g>
<defs>
<linearGradient id="paint0_linear_827_2278" x1="1018.56" y1="-4.64639e-06" x2="972.958" y2="336.099" gradientUnits="userSpaceOnUse">
<stop stop-color="#F1D3FF"/>
<stop offset="1" stop-color="#B7B5FF"/>
</linearGradient>
<linearGradient id="paint1_linear_827_2278" x1="787.781" y1="48.0749" x2="910.504" y2="461.811" gradientUnits="userSpaceOnUse">
<stop stop-color="#FF8FED"/>
<stop offset="1" stop-color="#8FFFD7"/>
</linearGradient>
<linearGradient id="paint2_linear_827_2278" x1="292.524" y1="321.916" x2="707.495" y2="-52.7778" gradientUnits="userSpaceOnUse">
<stop stop-color="#FF1ABF"/>
<stop offset="1" stop-color="#1AFFAC"/>
</linearGradient>
<clipPath id="clip0_827_2278">
<rect width="1707" height="311" fill="white" transform="translate(0.283203)"/>
</clipPath>
</defs>
</svg>
