<svg width="905" height="266" viewBox="0 0 905 266" fill="none" xmlns="http://www.w3.org/2000/svg">
<circle cx="862.376" cy="154.18" r="42.1773" fill="#9A89FF"/>
<circle cx="126.088" cy="117.907" r="91.585" fill="#94FFA5"/>
<ellipse cx="66.9305" cy="30.1381" rx="31.7342" ry="30.1266" fill="#FF94D4"/>
<circle cx="63.4244" cy="180.772" r="62.6634" fill="#FFF494"/>
<path d="M98.6649 224.362L121.26 208.708V240.016L98.6649 224.362Z" fill="black"/>
<path d="M98.6649 201.627L121.26 185.972V217.281L98.6649 201.627Z" fill="black"/>
<path d="M98.6649 178.891L121.26 163.237V194.546L98.6649 178.891Z" fill="black"/>
<path d="M98.6649 155.929L121.26 140.275V171.583L98.6649 155.929Z" fill="black"/>
<path d="M121.26 140.275L184.276 167.386L251.516 132.93L328.596 161.547L400.552 132.93L475.233 161.547L540.647 132.93L620.234 161.547L697.641 132.93L777.228 161.547L862.376 140.274V240.011L790.813 265.832L697.641 240.011L620.234 265.832L540.647 240.011L475.233 265.832L400.552 240.011L328.596 265.832L245.855 240.011L179.353 265.832L121.261 240.011L121.26 140.275Z" fill="black"/>
<path d="M884.97 155.931L862.375 171.585V140.276L884.97 155.931Z" fill="black"/>
<path d="M884.956 178.665L862.361 194.319V163.01L884.956 178.665Z" fill="black"/>
<path d="M884.956 201.4L862.361 217.054V185.746L884.956 201.4Z" fill="black"/>
<path d="M884.956 224.059L862.361 240.017V208.708L884.956 224.059Z" fill="black"/>
<path d="M182.551 212.653C182.551 217.345 180.83 221.004 177.388 223.63C173.971 226.256 169.089 227.569 162.74 227.569C151.087 227.569 144.318 223.005 142.431 213.877L149.506 212.462C150.22 215.751 151.699 218.148 153.943 219.652C156.187 221.131 159.183 221.871 162.931 221.871C166.985 221.871 170.058 221.08 172.148 219.499C174.265 217.919 175.323 215.675 175.323 212.768C175.323 210.983 174.902 209.53 174.061 208.408C173.245 207.286 172.161 206.368 170.81 205.654C169.458 204.94 167.928 204.366 166.22 203.933C164.537 203.474 162.829 203.028 161.095 202.594C156.99 201.523 154.058 200.567 152.298 199.726C150.564 198.884 149.175 197.928 148.129 196.857C147.084 195.761 146.294 194.512 145.758 193.109C145.223 191.707 144.955 190.062 144.955 188.175C144.955 183.764 146.498 180.373 149.583 178.002C152.694 175.605 157.143 174.407 162.931 174.407C168.336 174.407 172.467 175.35 175.323 177.237C178.179 179.124 180.167 182.311 181.289 186.798L174.099 188.061C173.487 185.205 172.263 183.14 170.427 181.865C168.591 180.564 166.08 179.914 162.893 179.914C155.677 179.914 152.069 182.63 152.069 188.061C152.069 189.59 152.4 190.84 153.063 191.809C153.752 192.752 154.67 193.543 155.817 194.18C156.99 194.792 158.341 195.302 159.871 195.71C161.427 196.118 163.084 196.551 164.843 197.01C168.387 197.903 170.937 198.655 172.493 199.267C174.048 199.853 175.425 200.529 176.623 201.294C177.847 202.059 178.893 202.964 179.759 204.009C180.626 205.055 181.302 206.279 181.787 207.681C182.297 209.084 182.551 210.741 182.551 212.653ZM228.562 222.559C229.225 222.559 229.977 222.47 230.819 222.291V226.575C229.085 226.983 227.313 227.187 225.503 227.187C222.953 227.187 221.091 226.524 219.919 225.198C218.771 223.847 218.121 221.743 217.968 218.887H217.738C216.081 221.973 214.118 224.191 211.848 225.542C209.605 226.894 206.825 227.569 203.511 227.569C199.482 227.569 196.448 226.473 194.408 224.28C192.368 222.087 191.348 219.079 191.348 215.254C191.348 206.355 197.136 201.842 208.712 201.715L217.738 201.562V199.305C217.738 195.965 217.063 193.568 215.711 192.115C214.36 190.636 212.205 189.896 209.248 189.896C206.239 189.896 204.072 190.432 202.746 191.503C201.42 192.574 200.629 194.231 200.374 196.475L193.184 195.825C194.357 188.379 199.75 184.657 209.362 184.657C214.462 184.657 218.287 185.855 220.836 188.252C223.412 190.623 224.699 194.065 224.699 198.578V216.401C224.699 218.441 224.967 219.984 225.503 221.029C226.038 222.049 227.058 222.559 228.562 222.559ZM205.27 222.33C207.718 222.33 209.885 221.743 211.772 220.57C213.659 219.397 215.125 217.829 216.17 215.866C217.216 213.903 217.738 211.876 217.738 209.785V206.381L210.472 206.534C207.463 206.585 205.168 206.916 203.587 207.528C202.006 208.14 200.77 209.084 199.877 210.358C199.01 211.608 198.577 213.278 198.577 215.369C198.577 217.46 199.138 219.142 200.26 220.417C201.407 221.692 203.077 222.33 205.27 222.33ZM253.805 226.805V200.567C253.805 196.641 253.486 193.9 252.849 192.344C252.237 190.763 251.102 189.973 249.445 189.973C247.813 189.973 246.487 191.197 245.467 193.645C244.473 196.092 243.976 199.407 243.976 203.589V226.805H237.512V194.257C237.512 189.437 237.436 186.492 237.283 185.422H242.981L243.211 190.279V192.115H243.287C244.154 189.514 245.251 187.627 246.576 186.454C247.902 185.256 249.56 184.657 251.549 184.657C253.792 184.657 255.462 185.269 256.559 186.492C257.681 187.716 258.484 189.603 258.968 192.153H259.045C260.065 189.45 261.276 187.525 262.678 186.378C264.106 185.23 265.904 184.657 268.071 184.657C271.08 184.657 273.234 185.753 274.535 187.946C275.835 190.139 276.485 193.9 276.485 199.229V226.805H270.06V200.567C270.06 196.641 269.741 193.9 269.104 192.344C268.492 190.763 267.357 189.973 265.7 189.973C264.017 189.973 262.678 191.044 261.684 193.186C260.715 195.327 260.231 198.54 260.231 202.824V226.805H253.805ZM322.649 222.559C323.312 222.559 324.064 222.47 324.906 222.291V226.575C323.172 226.983 321.4 227.187 319.589 227.187C317.04 227.187 315.178 226.524 314.005 225.198C312.858 223.847 312.208 221.743 312.055 218.887H311.825C310.168 221.973 308.205 224.191 305.935 225.542C303.692 226.894 300.912 227.569 297.598 227.569C293.569 227.569 290.535 226.473 288.495 224.28C286.455 222.087 285.435 219.079 285.435 215.254C285.435 206.355 291.223 201.842 302.799 201.715L311.825 201.562V199.305C311.825 195.965 311.15 193.568 309.798 192.115C308.447 190.636 306.292 189.896 303.335 189.896C300.326 189.896 298.159 190.432 296.833 191.503C295.507 192.574 294.716 194.231 294.461 196.475L287.271 195.825C288.444 188.379 293.837 184.657 303.449 184.657C308.549 184.657 312.374 185.855 314.923 188.252C317.499 190.623 318.786 194.065 318.786 198.578V216.401C318.786 218.441 319.054 219.984 319.589 221.029C320.125 222.049 321.145 222.559 322.649 222.559ZM299.357 222.33C301.805 222.33 303.972 221.743 305.859 220.57C307.746 219.397 309.212 217.829 310.257 215.866C311.303 213.903 311.825 211.876 311.825 209.785V206.381L304.559 206.534C301.55 206.585 299.255 206.916 297.674 207.528C296.093 208.14 294.857 209.084 293.964 210.358C293.097 211.608 292.664 213.278 292.664 215.369C292.664 217.46 293.225 219.142 294.347 220.417C295.494 221.692 297.164 222.33 299.357 222.33ZM360.781 226.805V200.223C360.781 196.755 360.106 194.18 358.754 192.497C357.428 190.814 355.299 189.973 352.367 189.973C349.205 189.973 346.604 191.133 344.565 193.453C342.55 195.748 341.543 198.872 341.543 202.824V226.805H334.659V194.257C334.659 189.437 334.582 186.492 334.429 185.422H340.931C340.957 185.549 340.982 185.893 341.008 186.454C341.033 187.015 341.059 187.665 341.084 188.405C341.135 189.119 341.186 190.483 341.237 192.497H341.352C344.029 187.27 348.44 184.657 354.585 184.657C358.996 184.657 362.286 185.855 364.453 188.252C366.62 190.623 367.704 194.282 367.704 199.229V226.805H360.781ZM381.893 190.853V185.422H388.395L390.614 174.636H395.203V185.422H411.726V190.853H395.203V215.789C395.203 217.804 395.739 219.295 396.81 220.264C397.906 221.233 399.691 221.718 402.164 221.718C405.581 221.718 409.367 221.284 413.523 220.417V225.657C409.214 226.83 404.943 227.416 400.711 227.416C396.58 227.416 393.482 226.55 391.417 224.816C389.352 223.056 388.319 220.29 388.319 216.516V190.853H381.893ZM428.746 170.046H435.668V184.963C435.668 186.467 435.554 188.979 435.324 192.497H435.439C438.116 187.27 442.438 184.657 448.404 184.657C457.329 184.657 461.791 189.514 461.791 199.229V226.805H454.868V200.223C454.868 196.755 454.192 194.18 452.841 192.497C451.515 190.814 449.386 189.973 446.454 189.973C443.292 189.973 440.691 191.133 438.652 193.453C436.637 195.748 435.63 198.872 435.63 202.824V226.805H428.746V170.046ZM510.823 222.559C511.486 222.559 512.238 222.47 513.08 222.291V226.575C511.346 226.983 509.574 227.187 507.763 227.187C505.214 227.187 503.352 226.524 502.179 225.198C501.032 223.847 500.382 221.743 500.229 218.887H499.999C498.342 221.973 496.379 224.191 494.109 225.542C491.865 226.894 489.086 227.569 485.772 227.569C481.743 227.569 478.709 226.473 476.669 224.28C474.629 222.087 473.609 219.079 473.609 215.254C473.609 206.355 479.397 201.842 490.973 201.715L499.999 201.562V199.305C499.999 195.965 499.324 193.568 497.972 192.115C496.621 190.636 494.466 189.896 491.509 189.896C488.5 189.896 486.332 190.432 485.007 191.503C483.681 192.574 482.89 194.231 482.635 196.475L475.445 195.825C476.618 188.379 482.011 184.657 491.623 184.657C496.723 184.657 500.547 185.855 503.097 188.252C505.673 190.623 506.96 194.065 506.96 198.578V216.401C506.96 218.441 507.228 219.984 507.763 221.029C508.299 222.049 509.319 222.559 510.823 222.559ZM487.531 222.33C489.979 222.33 492.146 221.743 494.033 220.57C495.92 219.397 497.386 217.829 498.431 215.866C499.477 213.903 499.999 211.876 499.999 209.785V206.381L492.732 206.534C489.724 206.585 487.429 206.916 485.848 207.528C484.267 208.14 483.03 209.084 482.138 210.358C481.271 211.608 480.838 213.278 480.838 215.369C480.838 217.46 481.399 219.142 482.521 220.417C483.668 221.692 485.338 222.33 487.531 222.33ZM594.775 226.805L574.886 183.586C575.294 187.971 575.498 191.21 575.498 193.3V226.805H568.996V175.21H577.487L597.681 218.734C597.222 215.063 596.993 211.57 596.993 208.255V175.21H603.571V226.805H594.775ZM651.801 206.075C651.801 213.036 650.194 218.365 646.981 222.062C643.794 225.734 639.179 227.569 633.136 227.569C627.221 227.569 622.682 225.708 619.52 221.985C616.384 218.263 614.816 212.959 614.816 206.075C614.816 198.961 616.422 193.619 619.635 190.049C622.873 186.454 627.45 184.657 633.366 184.657C639.587 184.657 644.215 186.429 647.249 189.973C650.283 193.517 651.801 198.884 651.801 206.075ZM644.572 206.075C644.572 200.593 643.692 196.5 641.933 193.798C640.199 191.095 637.382 189.743 633.48 189.743C629.528 189.743 626.634 191.12 624.798 193.874C622.962 196.628 622.045 200.695 622.045 206.075C622.045 211.429 622.962 215.509 624.798 218.314C626.634 221.093 629.388 222.483 633.06 222.483C637.114 222.483 640.046 221.119 641.856 218.39C643.667 215.662 644.572 211.557 644.572 206.075ZM696.855 191.694C693.999 191.21 691.297 190.967 688.747 190.967C684.642 190.967 681.327 192.51 678.803 195.595C676.278 198.68 675.016 202.607 675.016 207.375V226.805H668.132V199.994C668.132 198.056 667.953 195.774 667.596 193.147C667.265 190.521 666.78 187.946 666.143 185.422H672.683C673.703 188.94 674.315 192.128 674.519 194.983H674.71C675.985 192.128 677.235 190.037 678.458 188.711C679.682 187.359 681.136 186.352 682.819 185.689C684.501 185.001 686.554 184.657 688.976 184.657C691.628 184.657 694.254 184.873 696.855 185.307V191.694ZM743.899 191.694C741.043 191.21 738.34 190.967 735.79 190.967C731.685 190.967 728.37 192.51 725.846 195.595C723.322 198.68 722.06 202.607 722.06 207.375V226.805H715.175V199.994C715.175 198.056 714.997 195.774 714.64 193.147C714.308 190.521 713.824 187.946 713.186 185.422H719.727C720.747 188.94 721.359 192.128 721.563 194.983H721.754C723.029 192.128 724.278 190.037 725.502 188.711C726.726 187.359 728.179 186.352 729.862 185.689C731.545 185.001 733.597 184.657 736.02 184.657C738.672 184.657 741.298 184.873 743.899 185.307V191.694ZM779.468 221.374H794.002V226.805H756.444V221.374H772.584V190.853H760.383V185.422H779.468V221.374ZM771.819 177.39V170.046H779.468V177.39H771.819ZM838.559 214.986C838.559 218.913 837.068 221.998 834.084 224.242C831.127 226.46 827.022 227.569 821.769 227.569C816.516 227.569 812.513 226.754 809.76 225.122C807.031 223.464 805.246 220.864 804.405 217.319L810.486 216.134C810.971 218.327 812.003 219.933 813.584 220.953C815.191 221.947 817.919 222.444 821.769 222.444C828.653 222.444 832.096 220.264 832.096 215.904C832.096 214.272 831.471 212.959 830.222 211.965C828.972 210.945 827.06 210.116 824.484 209.479C817.753 207.821 813.482 206.521 811.672 205.578C809.861 204.634 808.472 203.461 807.503 202.059C806.534 200.631 806.05 198.859 806.05 196.743C806.05 192.994 807.401 190.062 810.104 187.946C812.806 185.83 816.72 184.771 821.845 184.771C826.333 184.771 829.916 185.626 832.593 187.334C835.27 189.017 836.94 191.477 837.603 194.716L831.407 195.48C831.127 193.645 830.222 192.255 828.692 191.312C827.162 190.368 824.88 189.896 821.845 189.896C815.599 189.896 812.475 191.822 812.475 195.672C812.475 197.202 812.998 198.425 814.043 199.343C815.114 200.261 816.822 201.001 819.168 201.562L823.72 202.747C827.876 203.767 830.859 204.774 832.669 205.769C834.505 206.763 835.946 208.013 836.991 209.517C838.037 210.996 838.559 212.819 838.559 214.986Z" fill="white"/>
</svg>
